solid 
 facet normal -1.000000e+00  0.000000e+00  0.000000e+00
   outer loop
     vertex  0.000000e+00 -1.105480e-16  1.436568e-18
     vertex  0.000000e+00  2.467706e-01  4.008305e-02
     vertex  0.000000e+00  2.500000e-01  8.326673e-17
   endloop
 endfacet
 facet normal -1.000000e+00  0.000000e+00  0.000000e+00
   outer loop
     vertex  0.000000e+00 -1.105480e-16  1.436568e-18
     vertex  0.000000e+00  2.371558e-01  7.913896e-02
     vertex  0.000000e+00  2.467706e-01  4.008305e-02
   endloop
 endfacet
 facet normal -1.000000e+00  0.000000e+00  0.000000e+00
   outer loop
     vertex  0.000000e+00 -1.105480e-16  1.436568e-18
     vertex  0.000000e+00  2.214061e-01  1.160987e-01
     vertex  0.000000e+00  2.371558e-01  7.913896e-02
   endloop
 endfacet
 facet normal -1.000000e+00  0.000000e+00  0.000000e+00
   outer loop
     vertex  0.000000e+00 -1.105480e-16  1.436568e-18
     vertex  0.000000e+00  1.999303e-01  1.500701e-01
     vertex  0.000000e+00  2.214061e-01  1.160987e-01
   endloop
 endfacet
 facet normal -1.000000e+00  0.000000e+00  0.000000e+00
   outer loop
     vertex  0.000000e+00 -1.105480e-16  1.436568e-18
     vertex  0.000000e+00  1.732836e-01  1.801919e-01
     vertex  0.000000e+00  1.999303e-01  1.500701e-01
   endloop
 endfacet
 facet normal -1.000000e+00  0.000000e+00  0.000000e+00
   outer loop
     vertex  0.000000e+00 -1.105480e-16  1.436568e-18
     vertex  0.000000e+00  1.421545e-01  2.056614e-01
     vertex  0.000000e+00  1.732836e-01  1.801919e-01
   endloop
 endfacet
 facet normal -1.000000e+00  0.000000e+00  0.000000e+00
   outer loop
     vertex  0.000000e+00 -1.105480e-16  1.436568e-18
     vertex  0.000000e+00  1.073479e-01  2.257961e-01
     vertex  0.000000e+00  1.421545e-01  2.056614e-01
   endloop
 endfacet
 facet normal -1.000000e+00  0.000000e+00  0.000000e+00
   outer loop
     vertex  0.000000e+00 -1.105480e-16  1.436568e-18
     vertex  0.000000e+00  6.976425e-02  2.400726e-01
     vertex  0.000000e+00  1.073479e-01  2.257961e-01
   endloop
 endfacet
 facet normal -1.000000e+00  0.000000e+00  0.000000e+00
   outer loop
     vertex  0.000000e+00 -1.105480e-16  1.436568e-18
     vertex  0.000000e+00  3.037608e-02  2.481363e-01
     vertex  0.000000e+00  6.976425e-02  2.400726e-01
   endloop
 endfacet
 facet normal -1.000000e+00  0.000000e+00  0.000000e+00
   outer loop
     vertex  0.000000e+00 -1.105480e-16  1.436568e-18
     vertex  0.000000e+00 -9.797567e-03  2.497938e-01
     vertex  0.000000e+00  3.037608e-02  2.481363e-01
   endloop
 endfacet
 facet normal -1.000000e+00  0.000000e+00  0.000000e+00
   outer loop
     vertex  0.000000e+00 -1.105480e-16  1.436568e-18
     vertex  0.000000e+00 -4.971762e-02  2.450042e-01
     vertex  0.000000e+00 -9.797567e-03  2.497938e-01
   endloop
 endfacet
 facet normal -1.000000e+00  0.000000e+00  0.000000e+00
   outer loop
     vertex  0.000000e+00 -1.105480e-16  1.436568e-18
     vertex  0.000000e+00 -8.835169e-02  2.338796e-01
     vertex  0.000000e+00 -4.971762e-02  2.450042e-01
   endloop
 endfacet
 facet normal -1.000000e+00  0.000000e+00  0.000000e+00
   outer loop
     vertex  0.000000e+00 -1.105480e-16  1.436568e-18
     vertex  0.000000e+00 -1.247006e-01  2.166929e-01
     vertex  0.000000e+00 -8.835169e-02  2.338796e-01
   endloop
 endfacet
 facet normal -1.000000e+00  0.000000e+00  0.000000e+00
   outer loop
     vertex  0.000000e+00 -1.105480e-16  1.436568e-18
     vertex  0.000000e+00 -1.578240e-01  1.938850e-01
     vertex  0.000000e+00 -1.247006e-01  2.166929e-01
   endloop
 endfacet
 facet normal -1.000000e+00  0.000000e+00  0.000000e+00
   outer loop
     vertex  0.000000e+00 -1.105480e-16  1.436568e-18
     vertex  0.000000e+00  2.209301e-01 -1.170010e-01
     vertex  0.000000e+00  1.993157e-01 -1.508853e-01
   endloop
 endfacet
 facet normal -1.000000e+00  0.000000e+00  0.000000e+00
   outer loop
     vertex  0.000000e+00 -1.105480e-16  1.436568e-18
     vertex  0.000000e+00  2.368307e-01 -8.010625e-02
     vertex  0.000000e+00  2.209301e-01 -1.170010e-01
   endloop
 endfacet
 facet normal -1.000000e+00  0.000000e+00  0.000000e+00
   outer loop
     vertex  0.000000e+00 -1.105480e-16  1.436568e-18
     vertex  0.000000e+00  2.466050e-01 -4.109170e-02
     vertex  0.000000e+00  2.368307e-01 -8.010625e-02
   endloop
 endfacet
 facet normal -1.000000e+00  0.000000e+00  0.000000e+00
   outer loop
     vertex  0.000000e+00 -1.105480e-16  1.436568e-18
     vertex  0.000000e+00  2.491499e-01 -2.060931e-02
     vertex  0.000000e+00  2.466050e-01 -4.109170e-02
   endloop
 endfacet
 facet normal -1.000000e+00  0.000000e+00  0.000000e+00
   outer loop
     vertex  0.000000e+00 -1.105480e-16  1.436568e-18
     vertex  0.000000e+00  2.500000e-01  8.326673e-17
     vertex  0.000000e+00  2.491499e-01 -2.060931e-02
   endloop
 endfacet
 facet normal -1.000000e+00  0.000000e+00  0.000000e+00
   outer loop
     vertex  0.000000e+00  1.725463e-01 -1.808986e-01
     vertex  0.000000e+00 -1.105480e-16  1.436568e-18
     vertex  0.000000e+00  1.993157e-01 -1.508853e-01
   endloop
 endfacet
 facet normal -1.000000e+00  0.000000e+00  0.000000e+00
   outer loop
     vertex  0.000000e+00 -1.868648e-01  1.660602e-01
     vertex  0.000000e+00 -1.578240e-01  1.938850e-01
     vertex  0.000000e+00 -1.105480e-16  1.436568e-18
   endloop
 endfacet
 facet normal -1.000000e+00  0.000000e+00  0.000000e+00
   outer loop
     vertex  0.000000e+00  1.413135e-01 -2.062406e-01
     vertex  0.000000e+00 -1.105480e-16  1.436568e-18
     vertex  0.000000e+00  1.725463e-01 -1.808986e-01
   endloop
 endfacet
 facet normal -1.000000e+00  0.000000e+00  0.000000e+00
   outer loop
     vertex  0.000000e+00 -2.110718e-01  1.339596e-01
     vertex  0.000000e+00 -1.868648e-01  1.660602e-01
     vertex  0.000000e+00 -1.105480e-16  1.436568e-18
   endloop
 endfacet
 facet normal -1.000000e+00  0.000000e+00  0.000000e+00
   outer loop
     vertex  0.000000e+00  1.064250e-01 -2.262325e-01
     vertex  0.000000e+00 -1.105480e-16  1.436568e-18
     vertex  0.000000e+00  1.413135e-01 -2.062406e-01
   endloop
 endfacet
 facet normal -1.000000e+00  0.000000e+00  0.000000e+00
   outer loop
     vertex  0.000000e+00 -2.298190e-01  9.841762e-02
     vertex  0.000000e+00 -2.110718e-01  1.339596e-01
     vertex  0.000000e+00 -1.105480e-16  1.436568e-18
   endloop
 endfacet
 facet normal -1.000000e+00  0.000000e+00  0.000000e+00
   outer loop
     vertex  0.000000e+00  6.878326e-02 -2.403550e-01
     vertex  0.000000e+00 -1.105480e-16  1.436568e-18
     vertex  0.000000e+00  1.064250e-01 -2.262325e-01
   endloop
 endfacet
 facet normal -1.000000e+00  0.000000e+00  0.000000e+00
   outer loop
     vertex  0.000000e+00 -2.426217e-01  6.032256e-02
     vertex  0.000000e+00 -2.298190e-01  9.841762e-02
     vertex  0.000000e+00 -1.105480e-16  1.436568e-18
   endloop
 endfacet
 facet normal -1.000000e+00  0.000000e+00  0.000000e+00
   outer loop
     vertex  0.000000e+00  2.936243e-02 -2.482580e-01
     vertex  0.000000e+00 -1.105480e-16  1.436568e-18
     vertex  0.000000e+00  6.878326e-02 -2.403550e-01
   endloop
 endfacet
 facet normal -1.000000e+00  0.000000e+00  0.000000e+00
   outer loop
     vertex  0.000000e+00 -2.491488e-01  2.062305e-02
     vertex  0.000000e+00 -2.426217e-01  6.032256e-02
     vertex  0.000000e+00 -1.105480e-16  1.436568e-18
   endloop
 endfacet
 facet normal -1.000000e+00  0.000000e+00  0.000000e+00
   outer loop
     vertex  0.000000e+00 -1.081766e-02 -2.497518e-01
     vertex  0.000000e+00 -1.105480e-16  1.436568e-18
     vertex  0.000000e+00  2.936243e-02 -2.482580e-01
   endloop
 endfacet
 facet normal  0.000000e+00  0.000000e+00  0.000000e+00
   outer loop
     vertex  0.000000e+00 -2.492309e-01 -1.960447e-02
     vertex  0.000000e+00 -1.105480e-16  1.436568e-18
     vertex  0.000000e+00 -1.105480e-16  1.436568e-18
   endloop
 endfacet
 facet normal -1.000000e+00  0.000000e+00  0.000000e+00
   outer loop
     vertex  0.000000e+00 -2.492309e-01 -1.960447e-02
     vertex  0.000000e+00 -2.491488e-01  2.062305e-02
     vertex  0.000000e+00 -1.105480e-16  1.436568e-18
   endloop
 endfacet
 facet normal -1.000000e+00  0.000000e+00  0.000000e+00
   outer loop
     vertex  0.000000e+00 -5.071777e-02 -2.447995e-01
     vertex  0.000000e+00 -1.105480e-16  1.436568e-18
     vertex  0.000000e+00 -1.081766e-02 -2.497518e-01
   endloop
 endfacet
 facet normal -1.000000e+00  0.000000e+00  0.000000e+00
   outer loop
     vertex  0.000000e+00 -2.428659e-01 -5.933120e-02
     vertex  0.000000e+00 -2.492309e-01 -1.960447e-02
     vertex  0.000000e+00 -1.105480e-16  1.436568e-18
   endloop
 endfacet
 facet normal -1.000000e+00  0.000000e+00  0.000000e+00
   outer loop
     vertex  0.000000e+00 -8.930603e-02 -2.335171e-01
     vertex  0.000000e+00 -1.105480e-16  1.436568e-18
     vertex  0.000000e+00 -5.071777e-02 -2.447995e-01
   endloop
 endfacet
 facet normal -1.000000e+00  0.000000e+00  0.000000e+00
   outer loop
     vertex  0.000000e+00 -2.302189e-01 -9.747905e-02
     vertex  0.000000e+00 -2.428659e-01 -5.933120e-02
     vertex  0.000000e+00 -1.105480e-16  1.436568e-18
   endloop
 endfacet
 facet normal -1.000000e+00  0.000000e+00  0.000000e+00
   outer loop
     vertex  0.000000e+00 -1.255844e-01 -2.161816e-01
     vertex  0.000000e+00 -1.105480e-16  1.436568e-18
     vertex  0.000000e+00 -8.930603e-02 -2.335171e-01
   endloop
 endfacet
 facet normal -1.000000e+00  0.000000e+00  0.000000e+00
   outer loop
     vertex  0.000000e+00 -2.116171e-01 -1.330969e-01
     vertex  0.000000e+00 -2.302189e-01 -9.747905e-02
     vertex  0.000000e+00 -1.105480e-16  1.436568e-18
   endloop
 endfacet
 facet normal -1.000000e+00  0.000000e+00  0.000000e+00
   outer loop
     vertex  0.000000e+00 -1.586144e-01 -1.932384e-01
     vertex  0.000000e+00 -1.105480e-16  1.436568e-18
     vertex  0.000000e+00 -1.255844e-01 -2.161816e-01
   endloop
 endfacet
 facet normal -1.000000e+00  0.000000e+00  0.000000e+00
   outer loop
     vertex  0.000000e+00 -1.875415e-01 -1.652955e-01
     vertex  0.000000e+00 -2.116171e-01 -1.330969e-01
     vertex  0.000000e+00 -1.105480e-16  1.436568e-18
   endloop
 endfacet
 facet normal -1.000000e+00  0.000000e+00  0.000000e+00
   outer loop
     vertex  0.000000e+00 -1.875415e-01 -1.652955e-01
     vertex  0.000000e+00 -1.105480e-16  1.436568e-18
     vertex  0.000000e+00 -1.586144e-01 -1.932384e-01
   endloop
 endfacet
 facet normal -6.794401e-07  9.967702e-01  8.030704e-02
   outer loop
     vertex  1.000000e+00  2.467708e-01  4.008870e-02
     vertex  0.000000e+00  2.500000e-01  8.326673e-17
     vertex  0.000000e+00  2.467706e-01  4.008305e-02
   endloop
 endfacet
 facet normal  0.000000e+00  9.967715e-01  8.029020e-02
   outer loop
     vertex  1.000000e+00  2.467708e-01  4.008870e-02
     vertex  1.000000e+00  2.500000e-01  8.326673e-17
     vertex  0.000000e+00  2.500000e-01  8.326673e-17
   endloop
 endfacet
 facet normal -4.232838e-06  9.710085e-01  2.390449e-01
   outer loop
     vertex  1.000000e+00  2.371564e-01  7.915418e-02
     vertex  0.000000e+00  2.467706e-01  4.008305e-02
     vertex  0.000000e+00  2.371558e-01  7.913896e-02
   endloop
 endfacet
 facet normal -1.569960e-06  9.710243e-01  2.389807e-01
   outer loop
     vertex  1.000000e+00  2.371564e-01  7.915418e-02
     vertex  1.000000e+00  2.467708e-01  4.008870e-02
     vertex  0.000000e+00  2.467706e-01  4.008305e-02
   endloop
 endfacet
 facet normal -4.637396e-06  9.199565e-01  3.920204e-01
   outer loop
     vertex  1.000000e+00  2.214066e-01  1.161095e-01
     vertex  0.000000e+00  2.371558e-01  7.913896e-02
     vertex  0.000000e+00  2.214061e-01  1.160987e-01
   endloop
 endfacet
 facet normal -6.531689e-06  9.199380e-01  3.920638e-01
   outer loop
     vertex  1.000000e+00  2.214066e-01  1.161095e-01
     vertex  1.000000e+00  2.371564e-01  7.915418e-02
     vertex  0.000000e+00  2.371558e-01  7.913896e-02
   endloop
 endfacet
 facet normal  1.834939e-06  8.452627e-01  5.343510e-01
   outer loop
     vertex  1.000000e+00  1.999302e-01  1.500669e-01
     vertex  0.000000e+00  2.214061e-01  1.160987e-01
     vertex  0.000000e+00  1.999303e-01  1.500701e-01
   endloop
 endfacet
 facet normal -6.145672e-06  8.451565e-01  5.345189e-01
   outer loop
     vertex  1.000000e+00  1.999302e-01  1.500669e-01
     vertex  1.000000e+00  2.214066e-01  1.161095e-01
     vertex  0.000000e+00  2.214061e-01  1.160987e-01
   endloop
 endfacet
 facet normal  8.069100e-06  7.489902e-01  6.625811e-01
   outer loop
     vertex  1.000000e+00  1.732832e-01  1.801803e-01
     vertex  0.000000e+00  1.999303e-01  1.500701e-01
     vertex  0.000000e+00  1.732836e-01  1.801919e-01
   endloop
 endfacet
 facet normal  2.236884e-06  7.488941e-01  6.626897e-01
   outer loop
     vertex  1.000000e+00  1.732832e-01  1.801803e-01
     vertex  1.000000e+00  1.999302e-01  1.500669e-01
     vertex  0.000000e+00  1.999303e-01  1.500701e-01
   endloop
 endfacet
 facet normal  5.919750e-06  6.332413e-01  7.739545e-01
   outer loop
     vertex  1.000000e+00  1.421542e-01  2.056540e-01
     vertex  0.000000e+00  1.732836e-01  1.801919e-01
     vertex  0.000000e+00  1.421545e-01  2.056614e-01
   endloop
 endfacet
 facet normal  9.311958e-06  6.333065e-01  7.739010e-01
   outer loop
     vertex  1.000000e+00  1.421542e-01  2.056540e-01
     vertex  1.000000e+00  1.732832e-01  1.801803e-01
     vertex  0.000000e+00  1.732836e-01  1.801919e-01
   endloop
 endfacet
 facet normal -3.281880e-06  5.007276e-01  8.656049e-01
   outer loop
     vertex  1.000000e+00  1.073480e-01  2.257998e-01
     vertex  0.000000e+00  1.421545e-01  2.056614e-01
     vertex  0.000000e+00  1.073479e-01  2.257961e-01
   endloop
 endfacet
 facet normal  6.558294e-06  5.009394e-01  8.654823e-01
   outer loop
     vertex  1.000000e+00  1.073480e-01  2.257998e-01
     vertex  1.000000e+00  1.421542e-01  2.056540e-01
     vertex  0.000000e+00  1.421545e-01  2.056614e-01
   endloop
 endfacet
 facet normal -1.014869e-05  3.551025e-01  9.348274e-01
   outer loop
     vertex  1.000000e+00  6.976468e-02  2.400832e-01
     vertex  0.000000e+00  1.073479e-01  2.257961e-01
     vertex  0.000000e+00  6.976425e-02  2.400726e-01
   endloop
 endfacet
 facet normal -3.516551e-06  3.552567e-01  9.347688e-01
   outer loop
     vertex  1.000000e+00  6.976468e-02  2.400832e-01
     vertex  1.000000e+00  1.073480e-01  2.257998e-01
     vertex  0.000000e+00  1.073479e-01  2.257961e-01
   endloop
 endfacet
 facet normal -7.384122e-06  2.005645e-01  9.796805e-01
   outer loop
     vertex  1.000000e+00  3.037638e-02  2.481437e-01
     vertex  0.000000e+00  6.976425e-02  2.400726e-01
     vertex  0.000000e+00  3.037608e-02  2.481363e-01
   endloop
 endfacet
 facet normal -1.056220e-05  2.004871e-01  9.796963e-01
   outer loop
     vertex  1.000000e+00  3.037638e-02  2.481437e-01
     vertex  1.000000e+00  6.976468e-02  2.400832e-01
     vertex  0.000000e+00  6.976425e-02  2.400726e-01
   endloop
 endfacet
 facet normal  2.630497e-06  4.122286e-02  9.991500e-01
   outer loop
     vertex  1.000000e+00 -9.797672e-03  2.497911e-01
     vertex  0.000000e+00  3.037608e-02  2.481363e-01
     vertex  0.000000e+00 -9.797567e-03  2.497938e-01
   endloop
 endfacet
 facet normal -7.481910e-06  4.097157e-02  9.991603e-01
   outer loop
     vertex  1.000000e+00 -9.797672e-03  2.497911e-01
     vertex  1.000000e+00  3.037638e-02  2.481437e-01
     vertex  0.000000e+00  3.037608e-02  2.481363e-01
   endloop
 endfacet
 facet normal  1.020350e-05 -1.191240e-01  9.928794e-01
   outer loop
     vertex  1.000000e+00 -4.971803e-02  2.449939e-01
     vertex  0.000000e+00 -9.797567e-03  2.497938e-01
     vertex  0.000000e+00 -4.971762e-02  2.450042e-01
   endloop
 endfacet
 facet normal  2.597037e-06 -1.193118e-01  9.928568e-01
   outer loop
     vertex  1.000000e+00 -4.971803e-02  2.449939e-01
     vertex  1.000000e+00 -9.797672e-03  2.497911e-01
     vertex  0.000000e+00 -9.797567e-03  2.497938e-01
   endloop
 endfacet
 facet normal  7.970433e-06 -2.767046e-01  9.609550e-01
   outer loop
     vertex  1.000000e+00 -8.835203e-02  2.338712e-01
     vertex  0.000000e+00 -4.971762e-02  2.450042e-01
     vertex  0.000000e+00 -8.835169e-02  2.338796e-01
   endloop
 endfacet
 facet normal  9.808737e-06 -2.766607e-01  9.609677e-01
   outer loop
     vertex  1.000000e+00 -8.835203e-02  2.338712e-01
     vertex  1.000000e+00 -4.971803e-02  2.449939e-01
     vertex  0.000000e+00 -4.971762e-02  2.450042e-01
   endloop
 endfacet
 facet normal -1.657591e-06 -4.274542e-01  9.040370e-01
   outer loop
     vertex  1.000000e+00 -1.247005e-01  2.166947e-01
     vertex  0.000000e+00 -8.835169e-02  2.338796e-01
     vertex  0.000000e+00 -1.247006e-01  2.166929e-01
   endloop
 endfacet
 facet normal  7.442983e-06 -4.272495e-01  9.041337e-01
   outer loop
     vertex  1.000000e+00 -1.247005e-01  2.166947e-01
     vertex  1.000000e+00 -8.835203e-02  2.338712e-01
     vertex  0.000000e+00 -8.835169e-02  2.338796e-01
   endloop
 endfacet
 facet normal -8.762615e-06 -5.671286e-01  8.236292e-01
   outer loop
     vertex  1.000000e+00 -1.578235e-01  1.938959e-01
     vertex  0.000000e+00 -1.247006e-01  2.166929e-01
     vertex  0.000000e+00 -1.578240e-01  1.938850e-01
   endloop
 endfacet
 facet normal -1.497046e-06 -5.669798e-01  8.237317e-01
   outer loop
     vertex  1.000000e+00 -1.578235e-01  1.938959e-01
     vertex  1.000000e+00 -1.247005e-01  2.166947e-01
     vertex  0.000000e+00 -1.247006e-01  2.166929e-01
   endloop
 endfacet
 facet normal -6.260076e-06 -6.918276e-01  7.220627e-01
   outer loop
     vertex  1.000000e+00 -1.868644e-01  1.660692e-01
     vertex  0.000000e+00 -1.578240e-01  1.938850e-01
     vertex  0.000000e+00 -1.868648e-01  1.660602e-01
   endloop
 endfacet
 facet normal -7.596394e-06 -6.918516e-01  7.220398e-01
   outer loop
     vertex  1.000000e+00 -1.868644e-01  1.660692e-01
     vertex  1.000000e+00 -1.578235e-01  1.938959e-01
     vertex  0.000000e+00 -1.578240e-01  1.938850e-01
   endloop
 endfacet
 facet normal  2.187826e-06 -7.984272e-01  6.020914e-01
   outer loop
     vertex  1.000000e+00 -2.110719e-01  1.339557e-01
     vertex  0.000000e+00 -1.868648e-01  1.660602e-01
     vertex  0.000000e+00 -2.110718e-01  1.339596e-01
   endloop
 endfacet
 facet normal -5.138512e-06 -7.985369e-01  6.019459e-01
   outer loop
     vertex  1.000000e+00 -2.110719e-01  1.339557e-01
     vertex  1.000000e+00 -1.868644e-01  1.660692e-01
     vertex  0.000000e+00 -1.868648e-01  1.660602e-01
   endloop
 endfacet
 facet normal  6.452565e-06 -8.844983e-01  4.665434e-01
   outer loop
     vertex  1.000000e+00 -2.298196e-01  9.840266e-02
     vertex  0.000000e+00 -2.110718e-01  1.339596e-01
     vertex  0.000000e+00 -2.298190e-01  9.841762e-02
   endloop
 endfacet
 facet normal  1.653964e-06 -8.845540e-01  4.664378e-01
   outer loop
     vertex  1.000000e+00 -2.298196e-01  9.840266e-02
     vertex  1.000000e+00 -2.110719e-01  1.339557e-01
     vertex  0.000000e+00 -2.110718e-01  1.339596e-01
   endloop
 endfacet
 facet normal  4.199831e-06 -9.478936e-01  3.185870e-01
   outer loop
     vertex  1.000000e+00 -2.426222e-01  6.031098e-02
     vertex  1.000000e+00 -2.298196e-01  9.840266e-02
     vertex  0.000000e+00 -2.298190e-01  9.841762e-02
   endloop
 endfacet
 facet normal  3.248777e-06 -9.479012e-01  3.185646e-01
   outer loop
     vertex  1.000000e+00 -2.426222e-01  6.031098e-02
     vertex  0.000000e+00 -2.298190e-01  9.841762e-02
     vertex  0.000000e+00 -2.426217e-01  6.032256e-02
   endloop
 endfacet
 facet normal  1.420813e-06 -9.867473e-01  1.622642e-01
   outer loop
     vertex  1.000000e+00 -2.491488e-01  2.062186e-02
     vertex  1.000000e+00 -2.426222e-01  6.031098e-02
     vertex  0.000000e+00 -2.426217e-01  6.032256e-02
   endloop
 endfacet
 facet normal  1.460729e-07 -9.867525e-01  1.622329e-01
   outer loop
     vertex  1.000000e+00 -2.491488e-01  2.062186e-02
     vertex  0.000000e+00 -2.426217e-01  6.032256e-02
     vertex  0.000000e+00 -2.491488e-01  2.062305e-02
   endloop
 endfacet
 facet normal -4.437299e-08 -9.999979e-01  2.040985e-03
   outer loop
     vertex  1.000000e+00 -2.492309e-01 -1.960342e-02
     vertex  0.000000e+00 -2.491488e-01  2.062305e-02
     vertex  0.000000e+00 -2.492309e-01 -1.960447e-02
   endloop
 endfacet
 facet normal -4.531894e-08 -9.999979e-01  2.040961e-03
   outer loop
     vertex  1.000000e+00 -2.492309e-01 -1.960342e-02
     vertex  1.000000e+00 -2.491488e-01  2.062186e-02
     vertex  0.000000e+00 -2.491488e-01  2.062305e-02
   endloop
 endfacet
 facet normal  1.244184e-07 -9.874022e-01 -1.582307e-01
   outer loop
     vertex  1.000000e+00 -2.428664e-01 -5.931988e-02
     vertex  1.000000e+00 -2.492309e-01 -1.960342e-02
     vertex  0.000000e+00 -2.492309e-01 -1.960447e-02
   endloop
 endfacet
 facet normal  1.341229e-06 -9.874070e-01 -1.582008e-01
   outer loop
     vertex  1.000000e+00 -2.428664e-01 -5.931988e-02
     vertex  0.000000e+00 -2.492309e-01 -1.960447e-02
     vertex  0.000000e+00 -2.428659e-01 -5.933120e-02
   endloop
 endfacet
 facet normal  4.170567e-06 -9.491968e-01 -3.146830e-01
   outer loop
     vertex  1.000000e+00 -2.302195e-01 -9.746396e-02
     vertex  0.000000e+00 -2.428659e-01 -5.933120e-02
     vertex  0.000000e+00 -2.302189e-01 -9.747905e-02
   endloop
 endfacet
 facet normal  3.130308e-06 -9.491887e-01 -3.147076e-01
   outer loop
     vertex  1.000000e+00 -2.302195e-01 -9.746396e-02
     vertex  1.000000e+00 -2.428664e-01 -5.931988e-02
     vertex  0.000000e+00 -2.428659e-01 -5.933120e-02
   endloop
 endfacet
 facet normal  6.443134e-06 -8.864491e-01 -4.628261e-01
   outer loop
     vertex  1.000000e+00 -2.116173e-01 -1.330927e-01
     vertex  1.000000e+00 -2.302195e-01 -9.746396e-02
     vertex  0.000000e+00 -2.302189e-01 -9.747905e-02
   endloop
 endfacet
 facet normal  1.795015e-06 -8.863956e-01 -4.629286e-01
   outer loop
     vertex  1.000000e+00 -2.116173e-01 -1.330927e-01
     vertex  0.000000e+00 -2.302189e-01 -9.747905e-02
     vertex  0.000000e+00 -2.116171e-01 -1.330969e-01
   endloop
 endfacet
 facet normal -4.986770e-06 -8.008736e-01 -5.988334e-01
   outer loop
     vertex  1.000000e+00 -1.875411e-01 -1.653043e-01
     vertex  0.000000e+00 -2.116171e-01 -1.330969e-01
     vertex  0.000000e+00 -1.875415e-01 -1.652955e-01
   endloop
 endfacet
 facet normal  2.379782e-06 -8.009833e-01 -5.986867e-01
   outer loop
     vertex  1.000000e+00 -1.875411e-01 -1.653043e-01
     vertex  1.000000e+00 -2.116173e-01 -1.330927e-01
     vertex  0.000000e+00 -2.116171e-01 -1.330969e-01
   endloop
 endfacet
 facet normal -6.083736e-06 -6.947945e-01 -7.192083e-01
   outer loop
     vertex  1.000000e+00 -1.586140e-01 -1.932494e-01
     vertex  1.000000e+00 -1.875411e-01 -1.653043e-01
     vertex  0.000000e+00 -1.875415e-01 -1.652955e-01
   endloop
 endfacet
 facet normal -7.640169e-06 -6.947666e-01 -7.192352e-01
   outer loop
     vertex  1.000000e+00 -1.586140e-01 -1.932494e-01
     vertex  0.000000e+00 -1.875415e-01 -1.652955e-01
     vertex  0.000000e+00 -1.586144e-01 -1.932384e-01
   endloop
 endfacet
 facet normal -1.720264e-06 -5.704915e-01 -8.213035e-01
   outer loop
     vertex  1.000000e+00 -1.255843e-01 -2.161838e-01
     vertex  0.000000e+00 -1.586144e-01 -1.932384e-01
     vertex  0.000000e+00 -1.255844e-01 -2.161816e-01
   endloop
 endfacet
 facet normal -8.824663e-06 -5.703464e-01 -8.214043e-01
   outer loop
     vertex  1.000000e+00 -1.255843e-01 -2.161838e-01
     vertex  1.000000e+00 -1.586140e-01 -1.932494e-01
     vertex  0.000000e+00 -1.586144e-01 -1.932384e-01
   endloop
 endfacet
 facet normal -1.907056e-06 -4.309454e-01 -9.023780e-01
   outer loop
     vertex  1.000000e+00 -8.930636e-02 -2.335089e-01
     vertex  1.000000e+00 -1.255843e-01 -2.161838e-01
     vertex  0.000000e+00 -1.255844e-01 -2.161816e-01
   endloop
 endfacet
 facet normal  7.267243e-06 -4.311513e-01 -9.022796e-01
   outer loop
     vertex  1.000000e+00 -8.930636e-02 -2.335089e-01
     vertex  0.000000e+00 -1.255844e-01 -2.161816e-01
     vertex  0.000000e+00 -8.930603e-02 -2.335171e-01
   endloop
 endfacet
 facet normal  9.873149e-06 -2.806305e-01 -9.598159e-01
   outer loop
     vertex  1.000000e+00 -5.071819e-02 -2.447891e-01
     vertex  0.000000e+00 -8.930603e-02 -2.335171e-01
     vertex  0.000000e+00 -5.071777e-02 -2.447995e-01
   endloop
 endfacet
 facet normal  7.789599e-06 -2.805808e-01 -9.598304e-01
   outer loop
     vertex  1.000000e+00 -5.071819e-02 -2.447891e-01
     vertex  1.000000e+00 -8.930636e-02 -2.335089e-01
     vertex  0.000000e+00 -8.930603e-02 -2.335171e-01
   endloop
 endfacet
 facet normal  1.027778e-05 -1.233551e-01 -9.923626e-01
   outer loop
     vertex  1.000000e+00 -1.081778e-02 -2.497489e-01
     vertex  1.000000e+00 -5.071819e-02 -2.447891e-01
     vertex  0.000000e+00 -5.071777e-02 -2.447995e-01
   endloop
 endfacet
 facet normal  2.851073e-06 -1.231718e-01 -9.923854e-01
   outer loop
     vertex  1.000000e+00 -1.081778e-02 -2.497489e-01
     vertex  0.000000e+00 -5.071777e-02 -2.447995e-01
     vertex  0.000000e+00 -1.081766e-02 -2.497518e-01
   endloop
 endfacet
 facet normal  2.889685e-06  3.689935e-02 -9.993190e-01
   outer loop
     vertex  1.000000e+00  2.936272e-02 -2.482653e-01
     vertex  1.000000e+00 -1.081778e-02 -2.497489e-01
     vertex  0.000000e+00 -1.081766e-02 -2.497518e-01
   endloop
 endfacet
 facet normal -7.283863e-06  3.715220e-02 -9.993096e-01
   outer loop
     vertex  1.000000e+00  2.936272e-02 -2.482653e-01
     vertex  0.000000e+00 -1.081766e-02 -2.497518e-01
     vertex  0.000000e+00  2.936243e-02 -2.482580e-01
   endloop
 endfacet
 facet normal -7.193666e-06  1.964820e-01 -9.805074e-01
   outer loop
     vertex  1.000000e+00  6.878369e-02 -2.403658e-01
     vertex  1.000000e+00  2.936272e-02 -2.482653e-01
     vertex  0.000000e+00  2.936243e-02 -2.482580e-01
   endloop
 endfacet
 facet normal -1.061723e-05  1.965655e-01 -9.804907e-01
   outer loop
     vertex  1.000000e+00  6.878369e-02 -2.403658e-01
     vertex  0.000000e+00  2.936243e-02 -2.482580e-01
     vertex  0.000000e+00  6.878326e-02 -2.403550e-01
   endloop
 endfacet
 facet normal -1.020855e-05  3.514249e-01 -9.362161e-01
   outer loop
     vertex  1.000000e+00  1.064251e-01 -2.262364e-01
     vertex  1.000000e+00  6.878369e-02 -2.403658e-01
     vertex  0.000000e+00  6.878326e-02 -2.403550e-01
   endloop
 endfacet
 facet normal -3.771610e-06  3.512750e-01 -9.362723e-01
   outer loop
     vertex  1.000000e+00  1.064251e-01 -2.262364e-01
     vertex  0.000000e+00  6.878326e-02 -2.403550e-01
     vertex  0.000000e+00  1.064250e-01 -2.262325e-01
   endloop
 endfacet
 facet normal -3.522118e-06  4.973924e-01 -8.675257e-01
   outer loop
     vertex  1.000000e+00  1.413132e-01 -2.062335e-01
     vertex  1.000000e+00  1.064251e-01 -2.262364e-01
     vertex  0.000000e+00  1.064250e-01 -2.262325e-01
   endloop
 endfacet
 facet normal  6.365224e-06  4.971791e-01 -8.676479e-01
   outer loop
     vertex  1.000000e+00  1.413132e-01 -2.062335e-01
     vertex  0.000000e+00  1.064250e-01 -2.262325e-01
     vertex  0.000000e+00  1.413135e-01 -2.062406e-01
   endloop
 endfacet
 facet normal  5.749810e-06  6.301440e-01 -7.764783e-01
   outer loop
     vertex  1.000000e+00  1.725458e-01 -1.808869e-01
     vertex  1.000000e+00  1.413132e-01 -2.062335e-01
     vertex  0.000000e+00  1.413135e-01 -2.062406e-01
   endloop
 endfacet
 facet normal  9.379325e-06  6.300739e-01 -7.765352e-01
   outer loop
     vertex  1.000000e+00  1.725458e-01 -1.808869e-01
     vertex  0.000000e+00  1.413135e-01 -2.062406e-01
     vertex  0.000000e+00  1.725463e-01 -1.808986e-01
   endloop
 endfacet
 facet normal  8.137924e-06  7.461915e-01 -6.657314e-01
   outer loop
     vertex  1.000000e+00  1.993156e-01 -1.508818e-01
     vertex  1.000000e+00  1.725458e-01 -1.808869e-01
     vertex  0.000000e+00  1.725463e-01 -1.808986e-01
   endloop
 endfacet
 facet normal  2.476230e-06  7.462852e-01 -6.656263e-01
   outer loop
     vertex  1.000000e+00  1.993156e-01 -1.508818e-01
     vertex  0.000000e+00  1.725463e-01 -1.808986e-01
     vertex  0.000000e+00  1.993157e-01 -1.508853e-01
   endloop
 endfacet
 facet normal  2.035628e-06  8.429710e-01 -5.379590e-01
   outer loop
     vertex  1.000000e+00  2.209306e-01 -1.170115e-01
     vertex  1.000000e+00  1.993156e-01 -1.508818e-01
     vertex  0.000000e+00  1.993157e-01 -1.508853e-01
   endloop
 endfacet
 facet normal -6.015325e-06  8.430787e-01 -5.377901e-01
   outer loop
     vertex  1.000000e+00  2.209306e-01 -1.170115e-01
     vertex  0.000000e+00  1.993157e-01 -1.508853e-01
     vertex  0.000000e+00  2.209301e-01 -1.170010e-01
   endloop
 endfacet
 facet normal -4.553475e-06  9.183249e-01 -3.958274e-01
   outer loop
     vertex  1.000000e+00  2.368313e-01 -8.012156e-02
     vertex  1.000000e+00  2.209306e-01 -1.170115e-01
     vertex  0.000000e+00  2.209301e-01 -1.170010e-01
   endloop
 endfacet
 facet normal -6.628162e-06  9.183454e-01 -3.957799e-01
   outer loop
     vertex  1.000000e+00  2.368313e-01 -8.012156e-02
     vertex  0.000000e+00  2.209301e-01 -1.170010e-01
     vertex  0.000000e+00  2.368307e-01 -8.010625e-02
   endloop
 endfacet
 facet normal -1.673328e-06  9.700217e-01 -2.430181e-01
   outer loop
     vertex  1.000000e+00  2.466052e-01 -4.109763e-02
     vertex  0.000000e+00  2.368307e-01 -8.010625e-02
     vertex  0.000000e+00  2.466050e-01 -4.109170e-02
   endloop
 endfacet
 facet normal -4.319120e-06  9.700377e-01 -2.429543e-01
   outer loop
     vertex  1.000000e+00  2.466052e-01 -4.109763e-02
     vertex  1.000000e+00  2.368313e-01 -8.012156e-02
     vertex  0.000000e+00  2.368307e-01 -8.010625e-02
   endloop
 endfacet
 facet normal -1.943569e-07  9.923693e-01 -1.233011e-01
   outer loop
     vertex  1.000000e+00  2.491499e-01 -2.061050e-02
     vertex  0.000000e+00  2.466050e-01 -4.109170e-02
     vertex  0.000000e+00  2.491499e-01 -2.060931e-02
   endloop
 endfacet
 facet normal -9.681615e-07  9.923739e-01 -1.232639e-01
   outer loop
     vertex  1.000000e+00  2.491499e-01 -2.061050e-02
     vertex  1.000000e+00  2.466052e-01 -4.109763e-02
     vertex  0.000000e+00  2.466050e-01 -4.109170e-02
   endloop
 endfacet
 facet normal  0.000000e+00  9.991503e-01 -4.121442e-02
   outer loop
     vertex  1.000000e+00  2.500000e-01  8.326673e-17
     vertex  0.000000e+00  2.491499e-01 -2.060931e-02
     vertex  0.000000e+00  2.500000e-01  8.326673e-17
   endloop
 endfacet
 facet normal -9.692985e-08  9.991505e-01 -4.120973e-02
   outer loop
     vertex  1.000000e+00  2.500000e-01  8.326673e-17
     vertex  1.000000e+00  2.491499e-01 -2.061050e-02
     vertex  0.000000e+00  2.491499e-01 -2.060931e-02
   endloop
 endfacet
 facet normal -1.000000e+00 -5.077042e-15  4.443120e-15
   outer loop
     vertex  1.000000e+00  1.732832e-01  1.801803e-01
     vertex  1.000000e+00  3.380272e-01  3.684292e-01
     vertex  1.000000e+00  3.941617e-01  3.076353e-01
   endloop
 endfacet
 facet normal -1.000000e+00 -5.574658e-15  7.576368e-15
   outer loop
     vertex  1.000000e+00  1.999302e-01  1.500669e-01
     vertex  1.000000e+00  3.941617e-01  3.076353e-01
     vertex  1.000000e+00  4.394958e-01  2.384157e-01
   endloop
 endfacet
 facet normal -1.000000e+00 -1.011360e-14  1.317143e-14
   outer loop
     vertex  1.000000e+00  1.999302e-01  1.500669e-01
     vertex  1.000000e+00  1.732832e-01  1.801803e-01
     vertex  1.000000e+00  3.941617e-01  3.076353e-01
   endloop
 endfacet
 facet normal -1.000000e+00  0.000000e+00  0.000000e+00
   outer loop
     vertex  1.000000e+00  1.421542e-01  2.056540e-01
     vertex  1.000000e+00  2.726318e-01  4.191324e-01
     vertex  1.000000e+00  3.380272e-01  3.684292e-01
   endloop
 endfacet
 facet normal -1.000000e+00  0.000000e+00  0.000000e+00
   outer loop
     vertex  1.000000e+00  1.421542e-01  2.056540e-01
     vertex  1.000000e+00  3.380272e-01  3.684292e-01
     vertex  1.000000e+00  1.732832e-01  1.801803e-01
   endloop
 endfacet
 facet normal -1.000000e+00 -8.120884e-15  1.448069e-14
   outer loop
     vertex  1.000000e+00  2.214066e-01  1.161095e-01
     vertex  1.000000e+00  1.999302e-01  1.500669e-01
     vertex  1.000000e+00  4.394958e-01  2.384157e-01
   endloop
 endfacet
 facet normal -1.000000e+00  3.956411e-15 -7.054845e-15
   outer loop
     vertex  1.000000e+00  2.214066e-01  1.161095e-01
     vertex  1.000000e+00  4.394958e-01  2.384157e-01
     vertex  1.000000e+00  4.727920e-01  1.626662e-01
   endloop
 endfacet
 facet normal -1.000000e+00  2.356200e-15 -1.440105e-15
   outer loop
     vertex  1.000000e+00  1.073480e-01  2.257998e-01
     vertex  1.000000e+00  2.726318e-01  4.191324e-01
     vertex  1.000000e+00  1.421542e-01  2.056540e-01
   endloop
 endfacet
 facet normal -1.000000e+00  1.255200e-15 -4.988386e-16
   outer loop
     vertex  1.000000e+00  1.073480e-01  2.257998e-01
     vertex  1.000000e+00  1.997702e-01  4.583565e-01
     vertex  1.000000e+00  2.726318e-01  4.191324e-01
   endloop
 endfacet
 facet normal -1.000000e+00  6.065775e-15 -1.844447e-14
   outer loop
     vertex  1.000000e+00  2.371564e-01  7.915418e-02
     vertex  1.000000e+00  2.214066e-01  1.161095e-01
     vertex  1.000000e+00  4.727920e-01  1.626662e-01
   endloop
 endfacet
 facet normal -1.000000e+00  1.307097e-14 -3.821017e-14
   outer loop
     vertex  1.000000e+00  2.371564e-01  7.915418e-02
     vertex  1.000000e+00  4.727920e-01  1.626662e-01
     vertex  1.000000e+00  4.931470e-01  8.246220e-02
   endloop
 endfacet
 facet normal -1.000000e+00  0.000000e+00  0.000000e+00
   outer loop
     vertex  1.000000e+00  6.976468e-02  2.400832e-01
     vertex  1.000000e+00  1.214401e-01  4.850274e-01
     vertex  1.000000e+00  1.997702e-01  4.583565e-01
   endloop
 endfacet
 facet normal -1.000000e+00  0.000000e+00  0.000000e+00
   outer loop
     vertex  1.000000e+00  6.976468e-02  2.400832e-01
     vertex  1.000000e+00  1.997702e-01  4.583565e-01
     vertex  1.000000e+00  1.073480e-01  2.257998e-01
   endloop
 endfacet
 facet normal -1.000000e+00  1.367219e-14 -8.473568e-14
   outer loop
     vertex  1.000000e+00  2.467708e-01  4.008870e-02
     vertex  1.000000e+00  2.371564e-01  7.915418e-02
     vertex  1.000000e+00  4.931470e-01  8.246220e-02
   endloop
 endfacet
 facet normal -1.000000e+00 -6.367510e-15  3.178304e-14
   outer loop
     vertex  1.000000e+00  2.467708e-01  4.008870e-02
     vertex  1.000000e+00  4.931470e-01  8.246220e-02
     vertex  1.000000e+00  5.000000e-01  0.000000e+00
   endloop
 endfacet
 facet normal -1.000000e+00 -2.702008e-15  5.700378e-16
   outer loop
     vertex  1.000000e+00  3.037638e-02  2.481437e-01
     vertex  1.000000e+00  1.214401e-01  4.850274e-01
     vertex  1.000000e+00  6.976468e-02  2.400832e-01
   endloop
 endfacet
 facet normal -1.000000e+00 -1.351338e-15  5.080794e-17
   outer loop
     vertex  1.000000e+00  3.037638e-02  2.481437e-01
     vertex  1.000000e+00  3.978612e-02  4.984145e-01
     vertex  1.000000e+00  1.214401e-01  4.850274e-01
   endloop
 endfacet
 facet normal -1.000000e+00  2.398242e-29  7.200482e-14
   outer loop
     vertex  1.000000e+00  2.500000e-01  8.326673e-17
     vertex  1.000000e+00  2.467708e-01  4.008870e-02
     vertex  1.000000e+00  5.000000e-01  0.000000e+00
   endloop
 endfacet
 facet normal -1.000000e+00  0.000000e+00  0.000000e+00
   outer loop
     vertex  1.000000e+00 -9.797672e-03  2.497911e-01
     vertex  1.000000e+00  3.978612e-02  4.984145e-01
     vertex  1.000000e+00  3.037638e-02  2.481437e-01
   endloop
 endfacet
 facet normal -1.000000e+00  0.000000e+00  0.000000e+00
   outer loop
     vertex  1.000000e+00 -9.797672e-03  2.497911e-01
     vertex  1.000000e+00 -4.295756e-02  4.981512e-01
     vertex  1.000000e+00  3.978612e-02  4.984145e-01
   endloop
 endfacet
 facet normal -1.000000e+00 -7.717497e-15 -2.457757e-14
   outer loop
     vertex  1.000000e+00  2.491499e-01 -2.061050e-02
     vertex  1.000000e+00  5.000000e-01  0.000000e+00
     vertex  1.000000e+00  4.936625e-01 -7.931996e-02
   endloop
 endfacet
 facet normal -1.000000e+00 -3.947079e-29 -1.185071e-13
   outer loop
     vertex  1.000000e+00  2.491499e-01 -2.061050e-02
     vertex  1.000000e+00  2.500000e-01  8.326673e-17
     vertex  1.000000e+00  5.000000e-01  0.000000e+00
   endloop
 endfacet
 facet normal -1.000000e+00  3.290350e-15  2.126780e-14
   outer loop
     vertex  1.000000e+00  2.466052e-01 -4.109763e-02
     vertex  1.000000e+00  2.491499e-01 -2.061050e-02
     vertex  1.000000e+00  4.936625e-01 -7.931996e-02
   endloop
 endfacet
 facet normal -1.000000e+00  3.425603e-15  2.214203e-14
   outer loop
     vertex  1.000000e+00  2.466052e-01 -4.109763e-02
     vertex  1.000000e+00  4.936625e-01 -7.931996e-02
     vertex  1.000000e+00  4.748252e-01 -1.566312e-01
   endloop
 endfacet
 facet normal -1.000000e+00  2.737178e-15  3.654553e-16
   outer loop
     vertex  1.000000e+00 -4.971803e-02  2.449939e-01
     vertex  1.000000e+00 -4.295756e-02  4.981512e-01
     vertex  1.000000e+00 -9.797672e-03  2.497911e-01
   endloop
 endfacet
 facet normal -1.000000e+00  1.292198e-15  4.040430e-16
   outer loop
     vertex  1.000000e+00 -4.971803e-02  2.449939e-01
     vertex  1.000000e+00 -1.245266e-01  4.842444e-01
     vertex  1.000000e+00 -4.295756e-02  4.981512e-01
   endloop
 endfacet
 facet normal -1.000000e+00  1.354310e-14  4.212769e-14
   outer loop
     vertex  1.000000e+00  2.368313e-01 -8.012156e-02
     vertex  1.000000e+00  2.466052e-01 -4.109763e-02
     vertex  1.000000e+00  4.748252e-01 -1.566312e-01
   endloop
 endfacet
 facet normal -1.000000e+00  1.236979e-15  3.847795e-15
   outer loop
     vertex  1.000000e+00  2.368313e-01 -8.012156e-02
     vertex  1.000000e+00  4.748252e-01 -1.566312e-01
     vertex  1.000000e+00  4.424962e-01 -2.327986e-01
   endloop
 endfacet
 facet normal -1.000000e+00  2.636369e-15  8.243373e-16
   outer loop
     vertex  1.000000e+00 -8.835203e-02  2.338712e-01
     vertex  1.000000e+00 -1.245266e-01  4.842444e-01
     vertex  1.000000e+00 -4.971803e-02  2.449939e-01
   endloop
 endfacet
 facet normal -1.000000e+00  1.205742e-15  6.176363e-16
   outer loop
     vertex  1.000000e+00 -8.835203e-02  2.338712e-01
     vertex  1.000000e+00 -2.026873e-01  4.570751e-01
     vertex  1.000000e+00 -1.245266e-01  4.842444e-01
   endloop
 endfacet
 facet normal -1.000000e+00  3.850840e-15  7.368819e-15
   outer loop
     vertex  1.000000e+00  2.209306e-01 -1.170115e-01
     vertex  1.000000e+00  2.368313e-01 -8.012156e-02
     vertex  1.000000e+00  4.424962e-01 -2.327986e-01
   endloop
 endfacet
 facet normal -1.000000e+00 -1.871173e-15 -3.580605e-15
   outer loop
     vertex  1.000000e+00  3.980477e-01 -3.025902e-01
     vertex  1.000000e+00  2.209306e-01 -1.170115e-01
     vertex  1.000000e+00  4.424962e-01 -2.327986e-01
   endloop
 endfacet
 facet normal -1.000000e+00 -2.459125e-15 -1.259676e-15
   outer loop
     vertex  1.000000e+00 -1.247005e-01  2.166947e-01
     vertex  1.000000e+00 -2.026873e-01  4.570751e-01
     vertex  1.000000e+00 -8.835203e-02  2.338712e-01
   endloop
 endfacet
 facet normal -1.000000e+00 -2.383021e-15 -1.234986e-15
   outer loop
     vertex  1.000000e+00 -1.247005e-01  2.166947e-01
     vertex  1.000000e+00 -2.752972e-01  4.173875e-01
     vertex  1.000000e+00 -2.026873e-01  4.570751e-01
   endloop
 endfacet
 facet normal -1.000000e+00 -5.047719e-15 -6.612315e-15
   outer loop
     vertex  1.000000e+00  1.993156e-01 -1.508818e-01
     vertex  1.000000e+00  2.209306e-01 -1.170115e-01
     vertex  1.000000e+00  3.980477e-01 -3.025902e-01
   endloop
 endfacet
 facet normal -1.000000e+00 -6.881808e-15 -4.610804e-15
   outer loop
     vertex  1.000000e+00 -1.578235e-01  1.938959e-01
     vertex  1.000000e+00 -2.752972e-01  4.173875e-01
     vertex  1.000000e+00 -1.247005e-01  2.166947e-01
   endloop
 endfacet
 facet normal -1.000000e+00 -1.862741e-15 -1.972636e-15
   outer loop
     vertex  1.000000e+00 -3.403657e-01  3.662687e-01
     vertex  1.000000e+00 -2.752972e-01  4.173875e-01
     vertex  1.000000e+00 -1.578235e-01  1.938959e-01
   endloop
 endfacet
 facet normal -1.000000e+00 -3.360474e-15 -4.402090e-15
   outer loop
     vertex  1.000000e+00  1.725458e-01 -1.808869e-01
     vertex  1.000000e+00  1.993156e-01 -1.508818e-01
     vertex  1.000000e+00  3.980477e-01 -3.025902e-01
   endloop
 endfacet
 facet normal -1.000000e+00 -3.795030e-15 -4.018923e-15
   outer loop
     vertex  1.000000e+00 -1.868644e-01  1.660692e-01
     vertex  1.000000e+00 -3.403657e-01  3.662687e-01
     vertex  1.000000e+00 -1.578235e-01  1.938959e-01
   endloop
 endfacet
 facet normal -1.000000e+00 -1.974175e-15 -1.833439e-15
   outer loop
     vertex  1.000000e+00  3.426924e-01 -3.640941e-01
     vertex  1.000000e+00  1.725458e-01 -1.808869e-01
     vertex  1.000000e+00  3.980477e-01 -3.025902e-01
   endloop
 endfacet
 facet normal -1.000000e+00  4.053964e-15  3.764964e-15
   outer loop
     vertex  1.000000e+00  1.413132e-01 -2.062335e-01
     vertex  1.000000e+00  1.725458e-01 -1.808869e-01
     vertex  1.000000e+00  3.426924e-01 -3.640941e-01
   endloop
 endfacet
 facet normal -1.000000e+00  8.360258e-15  1.098387e-14
   outer loop
     vertex  1.000000e+00 -3.961098e-01  3.051187e-01
     vertex  1.000000e+00 -1.868644e-01  1.660692e-01
     vertex  1.000000e+00 -2.110719e-01  1.339557e-01
   endloop
 endfacet
 facet normal -1.000000e+00  6.608420e-16 -6.024219e-16
   outer loop
     vertex  1.000000e+00 -3.961098e-01  3.051187e-01
     vertex  1.000000e+00 -3.403657e-01  3.662687e-01
     vertex  1.000000e+00 -1.868644e-01  1.660692e-01
   endloop
 endfacet
 facet normal -1.000000e+00  0.000000e+00  0.000000e+00
   outer loop
     vertex  1.000000e+00  2.779482e-01 -4.156260e-01
     vertex  1.000000e+00  1.064251e-01 -2.262364e-01
     vertex  1.000000e+00  1.413132e-01 -2.062335e-01
   endloop
 endfacet
 facet normal -1.000000e+00  2.257230e-15  1.472911e-15
   outer loop
     vertex  1.000000e+00  2.779482e-01 -4.156260e-01
     vertex  1.000000e+00  1.413132e-01 -2.062335e-01
     vertex  1.000000e+00  3.426924e-01 -3.640941e-01
   endloop
 endfacet
 facet normal -1.000000e+00  6.772619e-15  1.204231e-14
   outer loop
     vertex  1.000000e+00 -4.410044e-01  2.356122e-01
     vertex  1.000000e+00 -2.110719e-01  1.339557e-01
     vertex  1.000000e+00 -2.298196e-01  9.840266e-02
   endloop
 endfacet
 facet normal -1.000000e+00  4.422697e-15  6.727119e-15
   outer loop
     vertex  1.000000e+00 -4.410044e-01  2.356122e-01
     vertex  1.000000e+00 -3.961098e-01  3.051187e-01
     vertex  1.000000e+00 -2.110719e-01  1.339557e-01
   endloop
 endfacet
 facet normal -1.000000e+00  0.000000e+00  0.000000e+00
   outer loop
     vertex  1.000000e+00  2.055920e-01 -4.557749e-01
     vertex  1.000000e+00  6.878369e-02 -2.403658e-01
     vertex  1.000000e+00  1.064251e-01 -2.262364e-01
   endloop
 endfacet
 facet normal -1.000000e+00  0.000000e+00  0.000000e+00
   outer loop
     vertex  1.000000e+00  2.055920e-01 -4.557749e-01
     vertex  1.000000e+00  1.064251e-01 -2.262364e-01
     vertex  1.000000e+00  2.779482e-01 -4.156260e-01
   endloop
 endfacet
 facet normal -1.000000e+00 -8.935665e-15 -3.197202e-14
   outer loop
     vertex  1.000000e+00 -4.738226e-01  1.596526e-01
     vertex  1.000000e+00 -2.298196e-01  9.840266e-02
     vertex  1.000000e+00 -2.426222e-01  6.031098e-02
   endloop
 endfacet
 facet normal -1.000000e+00 -8.209706e-16  3.546987e-16
   outer loop
     vertex  1.000000e+00 -4.738226e-01  1.596526e-01
     vertex  1.000000e+00 -4.410044e-01  2.356122e-01
     vertex  1.000000e+00 -2.298196e-01  9.840266e-02
   endloop
 endfacet
 facet normal -1.000000e+00  0.000000e+00  0.000000e+00
   outer loop
     vertex  1.000000e+00  1.276077e-01 -4.834412e-01
     vertex  1.000000e+00  2.936272e-02 -2.482653e-01
     vertex  1.000000e+00  6.878369e-02 -2.403658e-01
   endloop
 endfacet
 facet normal -1.000000e+00  0.000000e+00  0.000000e+00
   outer loop
     vertex  1.000000e+00  1.276077e-01 -4.834412e-01
     vertex  1.000000e+00  6.878369e-02 -2.403658e-01
     vertex  1.000000e+00  2.055920e-01 -4.557749e-01
   endloop
 endfacet
 facet normal -1.000000e+00 -1.877813e-14 -1.311824e-13
   outer loop
     vertex  1.000000e+00 -4.936666e-01  7.932039e-02
     vertex  1.000000e+00 -2.426222e-01  6.031098e-02
     vertex  1.000000e+00 -2.491488e-01  2.062186e-02
   endloop
 endfacet
 facet normal -1.000000e+00 -1.176428e-14 -3.855512e-14
   outer loop
     vertex  1.000000e+00 -4.936666e-01  7.932039e-02
     vertex  1.000000e+00 -4.738226e-01  1.596526e-01
     vertex  1.000000e+00 -2.426222e-01  6.031098e-02
   endloop
 endfacet
 facet normal -1.000000e+00  0.000000e+00  0.000000e+00
   outer loop
     vertex  1.000000e+00  4.613075e-02 -4.978673e-01
     vertex  1.000000e+00  2.936272e-02 -2.482653e-01
     vertex  1.000000e+00  1.276077e-01 -4.834412e-01
   endloop
 endfacet
 facet normal -1.000000e+00  5.512504e-15  3.703247e-16
   outer loop
     vertex  1.000000e+00  4.613075e-02 -4.978673e-01
     vertex  1.000000e+00 -1.081778e-02 -2.497489e-01
     vertex  1.000000e+00  2.936272e-02 -2.482653e-01
   endloop
 endfacet
 facet normal -1.000000e+00 -7.679394e-15 -4.966456e-14
   outer loop
     vertex  1.000000e+00 -4.999899e-01 -3.184189e-03
     vertex  1.000000e+00 -2.491488e-01  2.062186e-02
     vertex  1.000000e+00 -2.492309e-01 -1.960342e-02
   endloop
 endfacet
 facet normal -1.000000e+00 -5.279512e-15 -7.495179e-14
   outer loop
     vertex  1.000000e+00 -4.999899e-01 -3.184189e-03
     vertex  1.000000e+00 -4.936666e-01  7.932039e-02
     vertex  1.000000e+00 -2.491488e-01  2.062186e-02
   endloop
 endfacet
 facet normal -1.000000e+00  2.686295e-15 -2.783513e-16
   outer loop
     vertex  1.000000e+00 -3.660949e-02 -4.986579e-01
     vertex  1.000000e+00 -1.081778e-02 -2.497489e-01
     vertex  1.000000e+00  4.613075e-02 -4.978673e-01
   endloop
 endfacet
 facet normal -1.000000e+00  5.494203e-15 -5.693042e-16
   outer loop
     vertex  1.000000e+00 -3.660949e-02 -4.986579e-01
     vertex  1.000000e+00 -5.071819e-02 -2.447891e-01
     vertex  1.000000e+00 -1.081778e-02 -2.497489e-01
   endloop
 endfacet
 facet normal -1.000000e+00 -3.722522e-16  6.193210e-14
   outer loop
     vertex  1.000000e+00 -4.926161e-01 -8.560157e-02
     vertex  1.000000e+00 -4.999899e-01 -3.184189e-03
     vertex  1.000000e+00 -2.492309e-01 -1.960342e-02
   endloop
 endfacet
 facet normal -1.000000e+00 -2.784896e-14  1.632596e-13
   outer loop
     vertex  1.000000e+00 -4.926161e-01 -8.560157e-02
     vertex  1.000000e+00 -2.492309e-01 -1.960342e-02
     vertex  1.000000e+00 -2.428664e-01 -5.931988e-02
   endloop
 endfacet
 facet normal -1.000000e+00  3.971808e-15 -6.539109e-16
   outer loop
     vertex  1.000000e+00 -1.183489e-01 -4.857912e-01
     vertex  1.000000e+00 -5.071819e-02 -2.447891e-01
     vertex  1.000000e+00 -3.660949e-02 -4.986579e-01
   endloop
 endfacet
 facet normal -1.000000e+00  1.244550e-16  4.257445e-16
   outer loop
     vertex  1.000000e+00 -1.183489e-01 -4.857912e-01
     vertex  1.000000e+00 -8.930636e-02 -2.335089e-01
     vertex  1.000000e+00 -5.071819e-02 -2.447891e-01
   endloop
 endfacet
 facet normal -1.000000e+00 -1.821653e-14  5.799351e-14
   outer loop
     vertex  1.000000e+00 -4.717507e-01 -1.656746e-01
     vertex  1.000000e+00 -2.428664e-01 -5.931988e-02
     vertex  1.000000e+00 -2.302195e-01 -9.746396e-02
   endloop
 endfacet
 facet normal -1.000000e+00 -1.634856e-14  5.397348e-14
   outer loop
     vertex  1.000000e+00 -4.717507e-01 -1.656746e-01
     vertex  1.000000e+00 -4.926161e-01 -8.560157e-02
     vertex  1.000000e+00 -2.428664e-01 -5.931988e-02
   endloop
 endfacet
 facet normal -1.000000e+00 -9.975463e-15  4.744528e-15
   outer loop
     vertex  1.000000e+00 -1.968491e-01 -4.596196e-01
     vertex  1.000000e+00 -1.255843e-01 -2.161838e-01
     vertex  1.000000e+00 -8.930636e-02 -2.335089e-01
   endloop
 endfacet
 facet normal -1.000000e+00 -1.220724e-15  5.806004e-16
   outer loop
     vertex  1.000000e+00 -1.968491e-01 -4.596196e-01
     vertex  1.000000e+00 -8.930636e-02 -2.335089e-01
     vertex  1.000000e+00 -1.183489e-01 -4.857912e-01
   endloop
 endfacet
 facet normal -1.000000e+00  1.110082e-14 -1.913283e-14
   outer loop
     vertex  1.000000e+00 -4.379680e-01 -2.412099e-01
     vertex  1.000000e+00 -2.302195e-01 -9.746396e-02
     vertex  1.000000e+00 -2.116173e-01 -1.330927e-01
   endloop
 endfacet
 facet normal -1.000000e+00 -1.632453e-15 -7.301048e-16
   outer loop
     vertex  1.000000e+00 -4.379680e-01 -2.412099e-01
     vertex  1.000000e+00 -4.717507e-01 -1.656746e-01
     vertex  1.000000e+00 -2.302195e-01 -9.746396e-02
   endloop
 endfacet
 facet normal -1.000000e+00 -1.404300e-14  8.820776e-15
   outer loop
     vertex  1.000000e+00 -2.699586e-01 -4.208600e-01
     vertex  1.000000e+00 -1.586140e-01 -1.932494e-01
     vertex  1.000000e+00 -1.255843e-01 -2.161838e-01
   endloop
 endfacet
 facet normal -1.000000e+00 -7.050116e-15  3.888146e-15
   outer loop
     vertex  1.000000e+00 -2.699586e-01 -4.208600e-01
     vertex  1.000000e+00 -1.255843e-01 -2.161838e-01
     vertex  1.000000e+00 -1.968491e-01 -4.596196e-01
   endloop
 endfacet
 facet normal -1.000000e+00  1.666317e-14 -2.201188e-14
   outer loop
     vertex  1.000000e+00 -3.921918e-01 -3.101390e-01
     vertex  1.000000e+00 -2.116173e-01 -1.330927e-01
     vertex  1.000000e+00 -1.875411e-01 -1.653043e-01
   endloop
 endfacet
 facet normal -1.000000e+00  8.498317e-15 -1.368432e-14
   outer loop
     vertex  1.000000e+00 -3.921918e-01 -3.101390e-01
     vertex  1.000000e+00 -4.379680e-01 -2.412099e-01
     vertex  1.000000e+00 -2.116173e-01 -1.330927e-01
   endloop
 endfacet
 facet normal -1.000000e+00 -3.830827e-15  3.825092e-15
   outer loop
     vertex  1.000000e+00 -3.356731e-01 -3.705740e-01
     vertex  1.000000e+00 -1.586140e-01 -1.932494e-01
     vertex  1.000000e+00 -2.699586e-01 -4.208600e-01
   endloop
 endfacet
 facet normal -1.000000e+00  0.000000e+00  0.000000e+00
   outer loop
     vertex  1.000000e+00 -3.356731e-01 -3.705740e-01
     vertex  1.000000e+00 -1.875411e-01 -1.653043e-01
     vertex  1.000000e+00 -1.586140e-01 -1.932494e-01
   endloop
 endfacet
 facet normal -1.000000e+00  2.217533e-15 -1.600273e-15
   outer loop
     vertex  1.000000e+00 -3.356731e-01 -3.705740e-01
     vertex  1.000000e+00 -3.921918e-01 -3.101390e-01
     vertex  1.000000e+00 -1.875411e-01 -1.653043e-01
   endloop
 endfacet
 facet normal  1.230827e-01  9.889872e-01  8.218893e-02
   outer loop
     vertex  2.000000e+00  3.710154e-01  5.452550e-02
     vertex  1.000000e+00  5.000000e-01  0.000000e+00
     vertex  1.000000e+00  4.931470e-01  8.246220e-02
   endloop
 endfacet
 facet normal  1.237099e-01  9.896794e-01  7.232264e-02
   outer loop
     vertex  2.000000e+00  3.710154e-01  5.452550e-02
     vertex  2.000000e+00  3.750000e-01  0.000000e+00
     vertex  1.000000e+00  5.000000e-01  0.000000e+00
   endloop
 endfacet
 facet normal  1.226845e-01  9.619496e-01  2.441343e-01
   outer loop
     vertex  2.000000e+00  3.591476e-01  1.079245e-01
     vertex  1.000000e+00  4.931470e-01  8.246220e-02
     vertex  1.000000e+00  4.727920e-01  1.626662e-01
   endloop
 endfacet
 facet normal  1.243118e-01  9.686095e-01  2.152722e-01
   outer loop
     vertex  2.000000e+00  3.591476e-01  1.079245e-01
     vertex  2.000000e+00  3.710154e-01  5.452550e-02
     vertex  1.000000e+00  4.931470e-01  8.246220e-02
   endloop
 endfacet
 facet normal  1.224351e-01  9.085772e-01  3.993709e-01
   outer loop
     vertex  2.000000e+00  3.396535e-01  1.589892e-01
     vertex  1.000000e+00  4.727920e-01  1.626662e-01
     vertex  1.000000e+00  4.394958e-01  2.384157e-01
   endloop
 endfacet
 facet normal  1.247132e-01  9.269448e-01  3.538643e-01
   outer loop
     vertex  2.000000e+00  3.396535e-01  1.589892e-01
     vertex  2.000000e+00  3.591476e-01  1.079245e-01
     vertex  1.000000e+00  4.727920e-01  1.626662e-01
   endloop
 endfacet
 facet normal  1.223481e-01  8.302685e-01  5.437694e-01
   outer loop
     vertex  2.000000e+00  3.129458e-01  2.066419e-01
     vertex  1.000000e+00  4.394958e-01  2.384157e-01
     vertex  1.000000e+00  3.941617e-01  3.076353e-01
   endloop
 endfacet
 facet normal  1.249416e-01  8.654971e-01  4.850817e-01
   outer loop
     vertex  2.000000e+00  3.129458e-01  2.066419e-01
     vertex  2.000000e+00  3.396535e-01  1.589892e-01
     vertex  1.000000e+00  4.394958e-01  2.384157e-01
   endloop
 endfacet
 facet normal  1.224164e-01  7.291748e-01  6.732892e-01
   outer loop
     vertex  2.000000e+00  2.795893e-01  2.498991e-01
     vertex  1.000000e+00  3.941617e-01  3.076353e-01
     vertex  1.000000e+00  3.380272e-01  3.684292e-01
   endloop
 endfacet
 facet normal  1.249984e-01  7.856899e-01  6.058604e-01
   outer loop
     vertex  2.000000e+00  2.795893e-01  2.498991e-01
     vertex  2.000000e+00  3.129458e-01  2.066419e-01
     vertex  1.000000e+00  3.941617e-01  3.076353e-01
   endloop
 endfacet
 facet normal  1.226232e-01  6.081116e-01  7.843238e-01
   outer loop
     vertex  2.000000e+00  2.402911e-01  2.878645e-01
     vertex  1.000000e+00  3.380272e-01  3.684292e-01
     vertex  1.000000e+00  2.726318e-01  4.191324e-01
   endloop
 endfacet
 facet normal  1.248646e-01  6.893679e-01  7.135690e-01
   outer loop
     vertex  2.000000e+00  2.402911e-01  2.878645e-01
     vertex  2.000000e+00  2.795893e-01  2.498991e-01
     vertex  1.000000e+00  3.380272e-01  3.684292e-01
   endloop
 endfacet
 facet normal  1.229565e-01  4.704183e-01  8.738354e-01
   outer loop
     vertex  2.000000e+00  1.958859e-01  3.197386e-01
     vertex  1.000000e+00  2.726318e-01  4.191324e-01
     vertex  1.000000e+00  1.997702e-01  4.583565e-01
   endloop
 endfacet
 facet normal  1.245214e-01  5.785890e-01  8.060578e-01
   outer loop
     vertex  2.000000e+00  1.958859e-01  3.197386e-01
     vertex  2.000000e+00  2.402911e-01  2.878645e-01
     vertex  1.000000e+00  2.726318e-01  4.191324e-01
   endloop
 endfacet
 facet normal  1.239654e-01  4.555619e-01  8.815304e-01
   outer loop
     vertex  2.000000e+00  1.473182e-01  3.448376e-01
     vertex  2.000000e+00  1.958859e-01  3.197386e-01
     vertex  1.000000e+00  1.997702e-01  4.583565e-01
   endloop
 endfacet
 facet normal  1.232541e-01  3.198638e-01  9.394123e-01
   outer loop
     vertex  2.000000e+00  9.562092e-02  3.626152e-01
     vertex  1.000000e+00  1.997702e-01  4.583565e-01
     vertex  1.000000e+00  1.214401e-01  4.850274e-01
   endloop
 endfacet
 facet normal  1.234541e-01  3.227010e-01  9.384152e-01
   outer loop
     vertex  2.000000e+00  9.562092e-02  3.626152e-01
     vertex  2.000000e+00  1.473182e-01  3.448376e-01
     vertex  1.000000e+00  1.997702e-01  4.583565e-01
   endloop
 endfacet
 facet normal  1.227999e-01  1.605655e-01  9.793564e-01
   outer loop
     vertex  2.000000e+00  4.189312e-02  3.726807e-01
     vertex  1.000000e+00  1.214401e-01  4.850274e-01
     vertex  1.000000e+00  3.978612e-02  4.984145e-01
   endloop
 endfacet
 facet normal  1.241063e-01  1.827154e-01  9.753013e-01
   outer loop
     vertex  2.000000e+00  4.189312e-02  3.726807e-01
     vertex  2.000000e+00  9.562092e-02  3.626152e-01
     vertex  1.000000e+00  1.214401e-01  4.850274e-01
   endloop
 endfacet
 facet normal  1.225041e-01 -3.158654e-03  9.924630e-01
   outer loop
     vertex  2.000000e+00 -1.272355e-02  3.748130e-01
     vertex  1.000000e+00  3.978612e-02  4.984145e-01
     vertex  1.000000e+00 -4.295756e-02  4.981512e-01
   endloop
 endfacet
 facet normal  1.245778e-01  3.870732e-02  9.914545e-01
   outer loop
     vertex  2.000000e+00 -1.272355e-02  3.748130e-01
     vertex  2.000000e+00  4.189312e-02  3.726807e-01
     vertex  1.000000e+00  3.978612e-02  4.984145e-01
   endloop
 endfacet
 facet normal  1.223673e-01 -1.668025e-01  9.783676e-01
   outer loop
     vertex  2.000000e+00 -6.706919e-02  3.689674e-01
     vertex  1.000000e+00 -4.295756e-02  4.981512e-01
     vertex  1.000000e+00 -1.245266e-01  4.842444e-01
   endloop
 endfacet
 facet normal  1.248789e-01 -1.061088e-01  9.864817e-01
   outer loop
     vertex  2.000000e+00 -6.706919e-02  3.689674e-01
     vertex  2.000000e+00 -1.272355e-02  3.748130e-01
     vertex  1.000000e+00 -4.295756e-02  4.981512e-01
   endloop
 endfacet
 facet normal  1.223813e-01 -3.258692e-01  9.374604e-01
   outer loop
     vertex  2.000000e+00 -1.199900e-01  3.552759e-01
     vertex  1.000000e+00 -1.245266e-01  4.842444e-01
     vertex  1.000000e+00 -2.026873e-01  4.570751e-01
   endloop
 endfacet
 facet normal  1.250056e-01 -2.485067e-01  9.605301e-01
   outer loop
     vertex  2.000000e+00 -1.199900e-01  3.552759e-01
     vertex  2.000000e+00 -6.706919e-02  3.689674e-01
     vertex  1.000000e+00 -1.245266e-01  4.842444e-01
   endloop
 endfacet
 facet normal  1.225335e-01 -4.760033e-01  8.708653e-01
   outer loop
     vertex  2.000000e+00 -1.703623e-01  3.340404e-01
     vertex  1.000000e+00 -2.026873e-01  4.570751e-01
     vertex  1.000000e+00 -2.752972e-01  4.173875e-01
   endloop
 endfacet
 facet normal  1.249424e-01 -3.854184e-01  9.142440e-01
   outer loop
     vertex  2.000000e+00 -1.703623e-01  3.340404e-01
     vertex  2.000000e+00 -1.199900e-01  3.552759e-01
     vertex  1.000000e+00 -2.026873e-01  4.570751e-01
   endloop
 endfacet
 facet normal  1.228146e-01 -6.130969e-01  7.804030e-01
   outer loop
     vertex  2.000000e+00 -2.171163e-01  3.057220e-01
     vertex  1.000000e+00 -2.752972e-01  4.173875e-01
     vertex  1.000000e+00 -3.403657e-01  3.662687e-01
   endloop
 endfacet
 facet normal  1.246732e-01 -5.140265e-01  8.486657e-01
   outer loop
     vertex  2.000000e+00 -2.171163e-01  3.057220e-01
     vertex  2.000000e+00 -1.703623e-01  3.340404e-01
     vertex  1.000000e+00 -2.752972e-01  4.173875e-01
   endloop
 endfacet
 facet normal  1.232241e-01 -7.333852e-01  6.685521e-01
   outer loop
     vertex  2.000000e+00 -2.592584e-01  2.709266e-01
     vertex  1.000000e+00 -3.403657e-01  3.662687e-01
     vertex  1.000000e+00 -3.961098e-01  3.051187e-01
   endloop
 endfacet
 facet normal  1.241914e-01 -6.317617e-01  7.651494e-01
   outer loop
     vertex  2.000000e+00 -2.592584e-01  2.709266e-01
     vertex  2.000000e+00 -2.171163e-01  3.057220e-01
     vertex  1.000000e+00 -3.403657e-01  3.662687e-01
   endloop
 endfacet
 facet normal  1.235063e-01 -7.362489e-01  6.653449e-01
   outer loop
     vertex  2.000000e+00 -2.958924e-01  2.303885e-01
     vertex  2.000000e+00 -2.592584e-01  2.709266e-01
     vertex  1.000000e+00 -3.961098e-01  3.051187e-01
   endloop
 endfacet
 facet normal  1.229483e-01 -8.336388e-01  5.384515e-01
   outer loop
     vertex  2.000000e+00 -3.262395e-01  1.849562e-01
     vertex  1.000000e+00 -3.961098e-01  3.051187e-01
     vertex  1.000000e+00 -4.410044e-01  2.356122e-01
   endloop
 endfacet
 facet normal  1.238829e-01 -8.251478e-01  5.511662e-01
   outer loop
     vertex  2.000000e+00 -3.262395e-01  1.849562e-01
     vertex  2.000000e+00 -2.958924e-01  2.303885e-01
     vertex  1.000000e+00 -3.961098e-01  3.051187e-01
   endloop
 endfacet
 facet normal  1.226008e-01 -9.110603e-01  3.936218e-01
   outer loop
     vertex  2.000000e+00 -3.496545e-01  1.355784e-01
     vertex  1.000000e+00 -4.410044e-01  2.356122e-01
     vertex  1.000000e+00 -4.738226e-01  1.596526e-01
   endloop
 endfacet
 facet normal  1.244267e-01 -8.965351e-01  4.251386e-01
   outer loop
     vertex  2.000000e+00 -3.496545e-01  1.355784e-01
     vertex  2.000000e+00 -3.262395e-01  1.849562e-01
     vertex  1.000000e+00 -4.410044e-01  2.356122e-01
   endloop
 endfacet
 facet normal  1.224093e-01 -9.635177e-01  2.380119e-01
   outer loop
     vertex  2.000000e+00 -3.656408e-01  8.329444e-02
     vertex  1.000000e+00 -4.738226e-01  1.596526e-01
     vertex  1.000000e+00 -4.936666e-01  7.932039e-02
   endloop
 endfacet
 facet normal  1.247975e-01 -9.488212e-01  2.901103e-01
   outer loop
     vertex  2.000000e+00 -3.656408e-01  8.329444e-02
     vertex  2.000000e+00 -3.496545e-01  1.355784e-01
     vertex  1.000000e+00 -4.738226e-01  1.596526e-01
   endloop
 endfacet
 facet normal  1.223582e-01 -9.895839e-01  7.584299e-02
   outer loop
     vertex  2.000000e+00 -3.738597e-01  2.922694e-02
     vertex  1.000000e+00 -4.936666e-01  7.932039e-02
     vertex  1.000000e+00 -4.999899e-01 -3.184189e-03
   endloop
 endfacet
 facet normal  1.249867e-01 -9.808901e-01  1.491071e-01
   outer loop
     vertex  2.000000e+00 -3.738597e-01  2.922694e-02
     vertex  2.000000e+00 -3.656408e-01  8.329444e-02
     vertex  1.000000e+00 -4.936666e-01  7.932039e-02
   endloop
 endfacet
 facet normal  1.224413e-01 -9.885273e-01 -8.844205e-02
   outer loop
     vertex  2.000000e+00 -3.741362e-01 -2.544181e-02
     vertex  1.000000e+00 -4.999899e-01 -3.184189e-03
     vertex  1.000000e+00 -4.926161e-01 -8.560157e-02
   endloop
 endfacet
 facet normal  1.249770e-01 -9.921469e-01  5.017821e-03
   outer loop
     vertex  2.000000e+00 -3.741362e-01 -2.544181e-02
     vertex  2.000000e+00 -3.738597e-01  2.922694e-02
     vertex  1.000000e+00 -4.999899e-01 -3.184189e-03
   endloop
 endfacet
 facet normal  1.226581e-01 -9.603788e-01 -2.502548e-01
   outer loop
     vertex  2.000000e+00 -3.664643e-01 -7.958934e-02
     vertex  1.000000e+00 -4.926161e-01 -8.560157e-02
     vertex  1.000000e+00 -4.717507e-01 -1.656746e-01
   endloop
 endfacet
 facet normal  1.247652e-01 -9.823748e-01 -1.391880e-01
   outer loop
     vertex  2.000000e+00 -3.664643e-01 -7.958934e-02
     vertex  2.000000e+00 -3.741362e-01 -2.544181e-02
     vertex  1.000000e+00 -4.926161e-01 -8.560157e-02
   endloop
 endfacet
 facet normal  1.230147e-01 -9.059273e-01 -4.051706e-01
   outer loop
     vertex  2.000000e+00 -3.510076e-01 -1.320341e-01
     vertex  1.000000e+00 -4.717507e-01 -1.656746e-01
     vertex  1.000000e+00 -4.379680e-01 -2.412099e-01
   endloop
 endfacet
 facet normal  1.243552e-01 -9.517624e-01 -2.805069e-01
   outer loop
     vertex  2.000000e+00 -3.510076e-01 -1.320341e-01
     vertex  2.000000e+00 -3.664643e-01 -7.958934e-02
     vertex  1.000000e+00 -4.717507e-01 -1.656746e-01
   endloop
 endfacet
 facet normal  1.237647e-01 -9.008718e-01 -4.160677e-01
   outer loop
     vertex  2.000000e+00 -3.280934e-01 -1.816479e-01
     vertex  2.000000e+00 -3.510076e-01 -1.320341e-01
     vertex  1.000000e+00 -4.379680e-01 -2.412099e-01
   endloop
 endfacet
 facet normal  1.231287e-01 -8.266946e-01 -5.490131e-01
   outer loop
     vertex  2.000000e+00 -2.982079e-01 -2.273856e-01
     vertex  1.000000e+00 -4.379680e-01 -2.412099e-01
     vertex  1.000000e+00 -3.921918e-01 -3.101390e-01
   endloop
 endfacet
 facet normal  1.236049e-01 -8.307167e-01 -5.427997e-01
   outer loop
     vertex  2.000000e+00 -2.982079e-01 -2.273856e-01
     vertex  2.000000e+00 -3.280934e-01 -1.816479e-01
     vertex  1.000000e+00 -4.379680e-01 -2.412099e-01
   endloop
 endfacet
 facet normal  1.242533e-01 -7.428708e-01 -6.578025e-01
   outer loop
     vertex  2.000000e+00 -2.619861e-01 -2.682916e-01
     vertex  2.000000e+00 -2.982079e-01 -2.273856e-01
     vertex  1.000000e+00 -3.921918e-01 -3.101390e-01
   endloop
 endfacet
 facet normal  1.227474e-01 -7.248528e-01 -6.778802e-01
   outer loop
     vertex  2.000000e+00 -2.619861e-01 -2.682916e-01
     vertex  1.000000e+00 -3.921918e-01 -3.101390e-01
     vertex  1.000000e+00 -3.356731e-01 -3.705740e-01
   endloop
 endfacet
 facet normal  1.247161e-01 -6.394155e-01 -7.586790e-01
   outer loop
     vertex  2.000000e+00 -2.201984e-01 -3.035104e-01
     vertex  2.000000e+00 -2.619861e-01 -2.682916e-01
     vertex  1.000000e+00 -3.356731e-01 -3.705740e-01
   endloop
 endfacet
 facet normal  1.225044e-01 -6.031299e-01 -7.881795e-01
   outer loop
     vertex  2.000000e+00 -2.201984e-01 -3.035104e-01
     vertex  1.000000e+00 -3.356731e-01 -3.705740e-01
     vertex  1.000000e+00 -2.699586e-01 -4.208600e-01
   endloop
 endfacet
 facet normal  1.249749e-01 -5.225482e-01 -8.434007e-01
   outer loop
     vertex  2.000000e+00 -1.737331e-01 -3.322990e-01
     vertex  2.000000e+00 -2.201984e-01 -3.035104e-01
     vertex  1.000000e+00 -2.699586e-01 -4.208600e-01
   endloop
 endfacet
 facet normal  1.223902e-01 -4.648813e-01 -8.768728e-01
   outer loop
     vertex  2.000000e+00 -1.737331e-01 -3.322990e-01
     vertex  1.000000e+00 -2.699586e-01 -4.208600e-01
     vertex  1.000000e+00 -1.968491e-01 -4.596196e-01
   endloop
 endfacet
 facet normal  1.250215e-01 -3.946309e-01 -9.102945e-01
   outer loop
     vertex  2.000000e+00 -1.235779e-01 -3.540423e-01
     vertex  2.000000e+00 -1.737331e-01 -3.322990e-01
     vertex  1.000000e+00 -1.968491e-01 -4.596196e-01
   endloop
 endfacet
 facet normal  1.224044e-01 -3.139025e-01 -9.415319e-01
   outer loop
     vertex  2.000000e+00 -1.235779e-01 -3.540423e-01
     vertex  1.000000e+00 -1.968491e-01 -4.596196e-01
     vertex  1.000000e+00 -1.183489e-01 -4.857912e-01
   endloop
 endfacet
 facet normal  1.225562e-01 -1.543245e-01 -9.803897e-01
   outer loop
     vertex  2.000000e+00 -7.079806e-02 -3.682686e-01
     vertex  1.000000e+00 -1.183489e-01 -4.857912e-01
     vertex  1.000000e+00 -3.660949e-02 -4.986579e-01
   endloop
 endfacet
 facet normal  1.248632e-01 -2.582164e-01 -9.579841e-01
   outer loop
     vertex  2.000000e+00 -7.079806e-02 -3.682686e-01
     vertex  2.000000e+00 -1.235779e-01 -3.540423e-01
     vertex  1.000000e+00 -1.183489e-01 -4.857912e-01
   endloop
 endfacet
 facet normal  1.245164e-01 -1.161033e-01 -9.854013e-01
   outer loop
     vertex  2.000000e+00 -1.651421e-02 -3.746645e-01
     vertex  2.000000e+00 -7.079806e-02 -3.682686e-01
     vertex  1.000000e+00 -3.660949e-02 -4.986579e-01
   endloop
 endfacet
 facet normal  1.228579e-01  9.482124e-03 -9.923790e-01
   outer loop
     vertex  2.000000e+00 -1.651421e-02 -3.746645e-01
     vertex  1.000000e+00 -3.660949e-02 -4.986579e-01
     vertex  1.000000e+00  4.613075e-02 -4.978673e-01
   endloop
 endfacet
 facet normal  1.239962e-01  2.865602e-02 -9.918688e-01
   outer loop
     vertex  2.000000e+00  3.812116e-02 -3.730861e-01
     vertex  2.000000e+00 -1.651421e-02 -3.746645e-01
     vertex  1.000000e+00  4.613075e-02 -4.978673e-01
   endloop
 endfacet
 facet normal  1.233205e-01  1.728408e-01 -9.771991e-01
   outer loop
     vertex  2.000000e+00  9.194778e-02 -3.635656e-01
     vertex  2.000000e+00  3.812116e-02 -3.730861e-01
     vertex  1.000000e+00  4.613075e-02 -4.978673e-01
   endloop
 endfacet
 facet normal  1.233086e-01  1.730152e-01 -9.771698e-01
   outer loop
     vertex  2.000000e+00  9.194778e-02 -3.635656e-01
     vertex  1.000000e+00  4.613075e-02 -4.978673e-01
     vertex  1.000000e+00  1.276077e-01 -4.834412e-01
   endloop
 endfacet
 facet normal  1.240380e-01  3.131670e-01 -9.415631e-01
   outer loop
     vertex  2.000000e+00  1.438220e-01 -3.463120e-01
     vertex  2.000000e+00  9.194778e-02 -3.635656e-01
     vertex  1.000000e+00  1.276077e-01 -4.834412e-01
   endloop
 endfacet
 facet normal  1.228777e-01  3.318173e-01 -9.353065e-01
   outer loop
     vertex  2.000000e+00  1.438220e-01 -3.463120e-01
     vertex  1.000000e+00  1.276077e-01 -4.834412e-01
     vertex  1.000000e+00  2.055920e-01 -4.557749e-01
   endloop
 endfacet
 facet normal  1.245727e-01  4.466001e-01 -8.860192e-01
   outer loop
     vertex  2.000000e+00  1.926409e-01 -3.217047e-01
     vertex  2.000000e+00  1.438220e-01 -3.463120e-01
     vertex  1.000000e+00  2.055920e-01 -4.557749e-01
   endloop
 endfacet
 facet normal  1.225843e-01  4.815309e-01 -8.678140e-01
   outer loop
     vertex  2.000000e+00  1.926409e-01 -3.217047e-01
     vertex  1.000000e+00  2.055920e-01 -4.557749e-01
     vertex  1.000000e+00  2.779482e-01 -4.156260e-01
   endloop
 endfacet
 facet normal  1.249058e-01  5.703964e-01 -8.118168e-01
   outer loop
     vertex  2.000000e+00  2.373663e-01 -2.902799e-01
     vertex  2.000000e+00  1.926409e-01 -3.217047e-01
     vertex  1.000000e+00  2.779482e-01 -4.156260e-01
   endloop
 endfacet
 facet normal  1.224179e-01  6.180679e-01 -7.765345e-01
   outer loop
     vertex  2.000000e+00  2.373663e-01 -2.902799e-01
     vertex  1.000000e+00  2.779482e-01 -4.156260e-01
     vertex  1.000000e+00  3.426924e-01 -3.640941e-01
   endloop
 endfacet
 facet normal  1.223781e-01  7.376969e-01 -6.639480e-01
   outer loop
     vertex  2.000000e+00  2.770469e-01 -2.527124e-01
     vertex  1.000000e+00  3.426924e-01 -3.640941e-01
     vertex  1.000000e+00  3.980477e-01 -3.025902e-01
   endloop
 endfacet
 facet normal  1.250259e-01  6.821125e-01 -7.204798e-01
   outer loop
     vertex  2.000000e+00  2.770469e-01 -2.527124e-01
     vertex  2.000000e+00  2.373663e-01 -2.902799e-01
     vertex  1.000000e+00  3.426924e-01 -3.640941e-01
   endloop
 endfacet
 facet normal  1.224762e-01  8.371156e-01 -5.331389e-01
   outer loop
     vertex  2.000000e+00  3.108399e-01 -2.097942e-01
     vertex  1.000000e+00  3.980477e-01 -3.025902e-01
     vertex  1.000000e+00  4.424962e-01 -2.327986e-01
   endloop
 endfacet
 facet normal  1.249374e-01  7.795263e-01 -6.137829e-01
   outer loop
     vertex  2.000000e+00  3.108399e-01 -2.097942e-01
     vertex  2.000000e+00  2.770469e-01 -2.527124e-01
     vertex  1.000000e+00  3.980477e-01 -3.025902e-01
   endloop
 endfacet
 facet normal  1.227284e-01  9.135557e-01 -3.877548e-01
   outer loop
     vertex  2.000000e+00  3.380286e-01 -1.624155e-01
     vertex  1.000000e+00  4.424962e-01 -2.327986e-01
     vertex  1.000000e+00  4.748252e-01 -1.566312e-01
   endloop
 endfacet
 facet normal  1.246599e-01  8.605677e-01 -4.938453e-01
   outer loop
     vertex  2.000000e+00  3.380286e-01 -1.624155e-01
     vertex  2.000000e+00  3.108399e-01 -2.097942e-01
     vertex  1.000000e+00  4.424962e-01 -2.327986e-01
   endloop
 endfacet
 facet normal  1.231931e-01  9.641747e-01 -2.349266e-01
   outer loop
     vertex  2.000000e+00  3.580380e-01 -1.115539e-01
     vertex  1.000000e+00  4.748252e-01 -1.566312e-01
     vertex  1.000000e+00  4.936625e-01 -7.931996e-02
   endloop
 endfacet
 facet normal  1.242126e-01  9.233699e-01 -3.632621e-01
   outer loop
     vertex  2.000000e+00  3.580380e-01 -1.115539e-01
     vertex  2.000000e+00  3.380286e-01 -1.624155e-01
     vertex  1.000000e+00  4.748252e-01 -1.566312e-01
   endloop
 endfacet
 facet normal  1.238185e-01  9.664432e-01 -2.250699e-01
   outer loop
     vertex  2.000000e+00  3.704448e-01 -5.827956e-02
     vertex  2.000000e+00  3.580380e-01 -1.115539e-01
     vertex  1.000000e+00  4.936625e-01 -7.931996e-02
   endloop
 endfacet
 facet normal  1.224833e-01  9.893178e-01 -7.904455e-02
   outer loop
     vertex  2.000000e+00  3.738595e-01 -2.922114e-02
     vertex  1.000000e+00  4.936625e-01 -7.931996e-02
     vertex  1.000000e+00  5.000000e-01  0.000000e+00
   endloop
 endfacet
 facet normal  1.238699e-01  9.855172e-01 -1.158107e-01
   outer loop
     vertex  2.000000e+00  3.738595e-01 -2.922114e-02
     vertex  2.000000e+00  3.704448e-01 -5.827956e-02
     vertex  1.000000e+00  4.936625e-01 -7.931996e-02
   endloop
 endfacet
 facet normal  1.239418e-01  9.915345e-01 -3.869966e-02
   outer loop
     vertex  2.000000e+00  3.750000e-01  0.000000e+00
     vertex  2.000000e+00  3.738595e-01 -2.922114e-02
     vertex  1.000000e+00  5.000000e-01  0.000000e+00
   endloop
 endfacet
 facet normal  1.000000e+00  3.462264e-16  4.823432e-16
   outer loop
     vertex  2.000000e+00 -1.105480e-16  1.436568e-18
     vertex  2.000000e+00  2.402911e-01  2.878645e-01
     vertex  2.000000e+00  1.958859e-01  3.197386e-01
   endloop
 endfacet
 facet normal  1.000000e+00  2.725836e-16  5.274601e-16
   outer loop
     vertex  2.000000e+00 -1.105480e-16  1.436568e-18
     vertex  2.000000e+00  1.958859e-01  3.197386e-01
     vertex  2.000000e+00  1.473182e-01  3.448376e-01
   endloop
 endfacet
 facet normal  1.000000e+00  3.937992e-15 -1.038441e-15
   outer loop
     vertex  2.000000e+00 -1.105480e-16  1.436568e-18
     vertex  2.000000e+00  1.473182e-01  3.448376e-01
     vertex  2.000000e+00  9.562092e-02  3.626152e-01
   endloop
 endfacet
 facet normal  1.000000e+00  0.000000e+00  0.000000e+00
   outer loop
     vertex  2.000000e+00 -1.105480e-16  1.436568e-18
     vertex  2.000000e+00  9.562092e-02  3.626152e-01
     vertex  2.000000e+00  4.189312e-02  3.726807e-01
   endloop
 endfacet
 facet normal  1.000000e+00  0.000000e+00 -0.000000e+00
   outer loop
     vertex  2.000000e+00 -1.105480e-16  1.436568e-18
     vertex  2.000000e+00  4.189312e-02  3.726807e-01
     vertex  2.000000e+00 -1.272355e-02  3.748130e-01
   endloop
 endfacet
 facet normal  1.000000e+00  0.000000e+00  0.000000e+00
   outer loop
     vertex  2.000000e+00 -1.105480e-16  1.436568e-18
     vertex  2.000000e+00 -1.272355e-02  3.748130e-01
     vertex  2.000000e+00 -6.706919e-02  3.689674e-01
   endloop
 endfacet
 facet normal  1.000000e+00  0.000000e+00  0.000000e+00
   outer loop
     vertex  2.000000e+00 -1.105480e-16  1.436568e-18
     vertex  2.000000e+00 -6.706919e-02  3.689674e-01
     vertex  2.000000e+00 -1.199900e-01  3.552759e-01
   endloop
 endfacet
 facet normal  1.000000e+00  0.000000e+00  0.000000e+00
   outer loop
     vertex  2.000000e+00 -1.105480e-16  1.436568e-18
     vertex  2.000000e+00 -1.199900e-01  3.552759e-01
     vertex  2.000000e+00 -1.703623e-01  3.340404e-01
   endloop
 endfacet
 facet normal  1.000000e+00  7.256775e-15  3.700993e-15
   outer loop
     vertex  2.000000e+00 -1.105480e-16  1.436568e-18
     vertex  2.000000e+00 -1.703623e-01  3.340404e-01
     vertex  2.000000e+00 -2.171163e-01  3.057220e-01
   endloop
 endfacet
 facet normal  1.000000e+00  7.560415e-16 -9.156692e-16
   outer loop
     vertex  2.000000e+00 -1.105480e-16  1.436568e-18
     vertex  2.000000e+00 -2.171163e-01  3.057220e-01
     vertex  2.000000e+00 -2.592584e-01  2.709266e-01
   endloop
 endfacet
 facet normal  1.000000e+00 -5.006764e-15 -6.430284e-15
   outer loop
     vertex  2.000000e+00 -1.105480e-16  1.436568e-18
     vertex  2.000000e+00 -2.592584e-01  2.709266e-01
     vertex  2.000000e+00 -2.958924e-01  2.303885e-01
   endloop
 endfacet
 facet normal  1.000000e+00  0.000000e+00  0.000000e+00
   outer loop
     vertex  2.000000e+00 -1.105480e-16  1.436568e-18
     vertex  2.000000e+00 -2.958924e-01  2.303885e-01
     vertex  2.000000e+00 -3.262395e-01  1.849562e-01
   endloop
 endfacet
 facet normal  1.000000e+00  0.000000e+00  0.000000e+00
   outer loop
     vertex  2.000000e+00 -1.105480e-16  1.436568e-18
     vertex  2.000000e+00 -3.262395e-01  1.849562e-01
     vertex  2.000000e+00 -3.496545e-01  1.355784e-01
   endloop
 endfacet
 facet normal  1.000000e+00  8.833160e-15  2.278058e-14
   outer loop
     vertex  2.000000e+00 -1.105480e-16  1.436568e-18
     vertex  2.000000e+00 -3.496545e-01  1.355784e-01
     vertex  2.000000e+00 -3.656408e-01  8.329444e-02
   endloop
 endfacet
 facet normal  1.000000e+00  1.979791e-14  7.091295e-14
   outer loop
     vertex  2.000000e+00 -1.105480e-16  1.436568e-18
     vertex  2.000000e+00 -3.656408e-01  8.329444e-02
     vertex  2.000000e+00 -3.738597e-01  2.922694e-02
   endloop
 endfacet
 facet normal  1.000000e+00  2.377051e-14  1.217289e-13
   outer loop
     vertex  2.000000e+00 -1.105480e-16  1.436568e-18
     vertex  2.000000e+00 -3.738597e-01  2.922694e-02
     vertex  2.000000e+00 -3.741362e-01 -2.544181e-02
   endloop
 endfacet
 facet normal  1.000000e+00  3.837109e-14 -9.298099e-14
   outer loop
     vertex  2.000000e+00 -1.105480e-16  1.436568e-18
     vertex  2.000000e+00 -3.741362e-01 -2.544181e-02
     vertex  2.000000e+00 -3.664643e-01 -7.958934e-02
   endloop
 endfacet
 facet normal  1.000000e+00  3.955312e-14 -9.842355e-14
   outer loop
     vertex  2.000000e+00 -1.105480e-16  1.436568e-18
     vertex  2.000000e+00 -3.664643e-01 -7.958934e-02
     vertex  2.000000e+00 -3.510076e-01 -1.320341e-01
   endloop
 endfacet
 facet normal  1.000000e+00  1.793312e-14 -4.094762e-14
   outer loop
     vertex  2.000000e+00 -1.105480e-16  1.436568e-18
     vertex  2.000000e+00 -3.510076e-01 -1.320341e-01
     vertex  2.000000e+00 -3.280934e-01 -1.816479e-01
   endloop
 endfacet
 facet normal  1.000000e+00 -7.426451e-15  4.856962e-15
   outer loop
     vertex  2.000000e+00 -1.105480e-16  1.436568e-18
     vertex  2.000000e+00 -3.280934e-01 -1.816479e-01
     vertex  2.000000e+00 -2.982079e-01 -2.273856e-01
   endloop
 endfacet
 facet normal  0.000000e+00  0.000000e+00  0.000000e+00
   outer loop
     vertex  2.000000e+00 -1.105480e-16  1.436568e-18
     vertex  2.000000e+00 -1.105480e-16  1.436568e-18
     vertex  2.000000e+00 -3.741362e-01 -2.544181e-02
   endloop
 endfacet
 facet normal  1.000000e+00 -1.457628e-14  1.423370e-14
   outer loop
     vertex  2.000000e+00 -2.619861e-01 -2.682916e-01
     vertex  2.000000e+00 -1.105480e-16  1.436568e-18
     vertex  2.000000e+00 -2.982079e-01 -2.273856e-01
   endloop
 endfacet
 facet normal  1.000000e+00  3.540381e-15 -2.183935e-15
   outer loop
     vertex  2.000000e+00  2.795893e-01  2.498991e-01
     vertex  2.000000e+00  2.402911e-01  2.878645e-01
     vertex  2.000000e+00 -1.105480e-16  1.436568e-18
   endloop
 endfacet
 facet normal  1.000000e+00 -1.165912e-14  1.138511e-14
   outer loop
     vertex  2.000000e+00 -2.201984e-01 -3.035104e-01
     vertex  2.000000e+00 -1.105480e-16  1.436568e-18
     vertex  2.000000e+00 -2.619861e-01 -2.682916e-01
   endloop
 endfacet
 facet normal  1.000000e+00 -1.775752e-15  3.763800e-15
   outer loop
     vertex  2.000000e+00  3.129458e-01  2.066419e-01
     vertex  2.000000e+00  2.795893e-01  2.498991e-01
     vertex  2.000000e+00 -1.105480e-16  1.436568e-18
   endloop
 endfacet
 facet normal  1.000000e+00  1.250834e-15  2.018866e-15
   outer loop
     vertex  2.000000e+00 -1.737331e-01 -3.322990e-01
     vertex  2.000000e+00 -1.105480e-16  1.436568e-18
     vertex  2.000000e+00 -2.201984e-01 -3.035104e-01
   endloop
 endfacet
 facet normal  1.000000e+00 -6.219284e-15  1.049324e-14
   outer loop
     vertex  2.000000e+00  3.396535e-01  1.589892e-01
     vertex  2.000000e+00  3.129458e-01  2.066419e-01
     vertex  2.000000e+00 -1.105480e-16  1.436568e-18
   endloop
 endfacet
 facet normal  1.000000e+00  8.162878e-15 -1.594900e-15
   outer loop
     vertex  2.000000e+00 -1.235779e-01 -3.540423e-01
     vertex  2.000000e+00 -1.105480e-16  1.436568e-18
     vertex  2.000000e+00 -1.737331e-01 -3.322990e-01
   endloop
 endfacet
 facet normal  1.000000e+00 -8.016576e-15  1.433285e-14
   outer loop
     vertex  2.000000e+00  3.591476e-01  1.079245e-01
     vertex  2.000000e+00  3.396535e-01  1.589892e-01
     vertex  2.000000e+00 -1.105480e-16  1.436568e-18
   endloop
 endfacet
 facet normal  1.000000e+00  7.999473e-15 -1.537864e-15
   outer loop
     vertex  2.000000e+00 -7.079806e-02 -3.682686e-01
     vertex  2.000000e+00 -1.105480e-16  1.436568e-18
     vertex  2.000000e+00 -1.235779e-01 -3.540423e-01
   endloop
 endfacet
 facet normal  1.000000e+00 -5.819938e-15  7.022955e-15
   outer loop
     vertex  2.000000e+00  3.710154e-01  5.452550e-02
     vertex  2.000000e+00  3.591476e-01  1.079245e-01
     vertex  2.000000e+00 -1.105480e-16  1.436568e-18
   endloop
 endfacet
 facet normal  1.000000e+00  0.000000e+00 -0.000000e+00
   outer loop
     vertex  2.000000e+00 -1.651421e-02 -3.746645e-01
     vertex  2.000000e+00 -1.105480e-16  1.436568e-18
     vertex  2.000000e+00 -7.079806e-02 -3.682686e-01
   endloop
 endfacet
 facet normal  1.000000e+00 -1.248031e-31 -3.257846e-14
   outer loop
     vertex  2.000000e+00  3.750000e-01  0.000000e+00
     vertex  2.000000e+00  3.710154e-01  5.452550e-02
     vertex  2.000000e+00 -1.105480e-16  1.436568e-18
   endloop
 endfacet
 facet normal  1.000000e+00  0.000000e+00 -1.063827e-13
   outer loop
     vertex  2.000000e+00  3.738595e-01 -2.922114e-02
     vertex  2.000000e+00  3.750000e-01  0.000000e+00
     vertex  2.000000e+00 -1.105480e-16  1.436568e-18
   endloop
 endfacet
 facet normal  1.000000e+00  0.000000e+00  0.000000e+00
   outer loop
     vertex  2.000000e+00  3.812116e-02 -3.730861e-01
     vertex  2.000000e+00 -1.105480e-16  1.436568e-18
     vertex  2.000000e+00 -1.651421e-02 -3.746645e-01
   endloop
 endfacet
 facet normal  1.000000e+00  8.239277e-15 -9.682193e-16
   outer loop
     vertex  2.000000e+00  3.704448e-01 -5.827956e-02
     vertex  2.000000e+00  3.738595e-01 -2.922114e-02
     vertex  2.000000e+00 -1.105480e-16  1.436568e-18
   endloop
 endfacet
 facet normal  1.000000e+00 -8.103905e-15 -8.280401e-16
   outer loop
     vertex  2.000000e+00  9.194778e-02 -3.635656e-01
     vertex  2.000000e+00 -1.105480e-16  1.436568e-18
     vertex  2.000000e+00  3.812116e-02 -3.730861e-01
   endloop
 endfacet
 facet normal  1.000000e+00  1.505295e-14  4.234183e-14
   outer loop
     vertex  2.000000e+00  3.580380e-01 -1.115539e-01
     vertex  2.000000e+00  3.704448e-01 -5.827956e-02
     vertex  2.000000e+00 -1.105480e-16  1.436568e-18
   endloop
 endfacet
 facet normal  1.000000e+00 -3.747466e-16  1.126708e-15
   outer loop
     vertex  2.000000e+00  1.438220e-01 -3.463120e-01
     vertex  2.000000e+00 -1.105480e-16  1.436568e-18
     vertex  2.000000e+00  9.194778e-02 -3.635656e-01
   endloop
 endfacet
 facet normal  1.000000e+00  7.715793e-15  1.879283e-14
   outer loop
     vertex  2.000000e+00  3.380286e-01 -1.624155e-01
     vertex  2.000000e+00  3.580380e-01 -1.115539e-01
     vertex  2.000000e+00 -1.105480e-16  1.436568e-18
   endloop
 endfacet
 facet normal  1.000000e+00  6.987576e-15  4.184250e-15
   outer loop
     vertex  2.000000e+00  1.926409e-01 -3.217047e-01
     vertex  2.000000e+00 -1.105480e-16  1.436568e-18
     vertex  2.000000e+00  1.438220e-01 -3.463120e-01
   endloop
 endfacet
 facet normal  1.000000e+00 -1.029814e-15  5.909691e-16
   outer loop
     vertex  2.000000e+00  3.108399e-01 -2.097942e-01
     vertex  2.000000e+00  3.380286e-01 -1.624155e-01
     vertex  2.000000e+00 -1.105480e-16  1.436568e-18
   endloop
 endfacet
 facet normal  1.000000e+00  3.494402e-15  2.092493e-15
   outer loop
     vertex  2.000000e+00  2.373663e-01 -2.902799e-01
     vertex  2.000000e+00 -1.105480e-16  1.436568e-18
     vertex  2.000000e+00  1.926409e-01 -3.217047e-01
   endloop
 endfacet
 facet normal  1.000000e+00 -5.493171e-15 -6.022128e-15
   outer loop
     vertex  2.000000e+00  2.770469e-01 -2.527124e-01
     vertex  2.000000e+00  3.108399e-01 -2.097942e-01
     vertex  2.000000e+00 -1.105480e-16  1.436568e-18
   endloop
 endfacet
 facet normal  1.000000e+00 -2.745843e-15 -3.010250e-15
   outer loop
     vertex  2.000000e+00  2.770469e-01 -2.527124e-01
     vertex  2.000000e+00 -1.105480e-16  1.436568e-18
     vertex  2.000000e+00  2.373663e-01 -2.902799e-01
   endloop
 endfacet
 facet normal  0.000000e+00  0.000000e+00  0.000000e+00
   outer loop
     vertex  0.000000e+00 -1.105480e-16  1.436568e-18
     vertex  2.000000e+00 -1.105480e-16  1.436568e-18
     vertex  2.000000e+00 -1.105480e-16  1.436568e-18
   endloop
 endfacet
 facet normal  0.000000e+00  0.000000e+00  0.000000e+00
   outer loop
     vertex  0.000000e+00 -1.105480e-16  1.436568e-18
     vertex  0.000000e+00 -1.105480e-16  1.436568e-18
     vertex  2.000000e+00 -1.105480e-16  1.436568e-18
   endloop
 endfacet
 facet normal -4.163336e-17 -3.330669e-16 -1.000000e+00
   outer loop
     vertex  1.000000e+00  2.500000e-01  8.326673e-17
     vertex  1.000000e+00  5.000000e-01  0.000000e+00
     vertex  2.000000e+00  3.750000e-01  0.000000e+00
   endloop
 endfacet
 facet normal -8.278787e-17 -3.830848e-18 -1.000000e+00
   outer loop
     vertex  1.000000e+00  2.500000e-01  8.326673e-17
     vertex  2.000000e+00  3.750000e-01  0.000000e+00
     vertex  2.000000e+00 -1.105480e-16  1.436568e-18
   endloop
 endfacet
 facet normal  0.000000e+00  3.273206e-16 -1.000000e+00
   outer loop
     vertex  0.000000e+00 -1.105480e-16  1.436568e-18
     vertex  0.000000e+00  2.500000e-01  8.326673e-17
     vertex  1.000000e+00  2.500000e-01  8.326673e-17
   endloop
 endfacet
 facet normal  0.000000e+00  3.273206e-16 -1.000000e+00
   outer loop
     vertex  2.000000e+00 -1.105480e-16  1.436568e-18
     vertex  0.000000e+00 -1.105480e-16  1.436568e-18
     vertex  1.000000e+00  2.500000e-01  8.326673e-17
   endloop
 endfacet
 facet normal -4.163336e-17 -3.330669e-16 -1.000000e+00
   outer loop
     vertex  1.000000e+00  2.500000e-01  8.326673e-17
     vertex  1.000000e+00  5.000000e-01  0.000000e+00
     vertex  2.000000e+00  3.750000e-01  0.000000e+00
   endloop
 endfacet
 facet normal -8.278787e-17 -3.830848e-18 -1.000000e+00
   outer loop
     vertex  1.000000e+00  2.500000e-01  8.326673e-17
     vertex  2.000000e+00  3.750000e-01  0.000000e+00
     vertex  2.000000e+00 -1.105480e-16  1.436568e-18
   endloop
 endfacet
 facet normal  0.000000e+00  3.273206e-16 -1.000000e+00
   outer loop
     vertex  0.000000e+00 -1.105480e-16  1.436568e-18
     vertex  0.000000e+00  2.500000e-01  8.326673e-17
     vertex  1.000000e+00  2.500000e-01  8.326673e-17
   endloop
 endfacet
 facet normal  0.000000e+00  3.273206e-16 -1.000000e+00
   outer loop
     vertex  2.000000e+00 -1.105480e-16  1.436568e-18
     vertex  0.000000e+00 -1.105480e-16  1.436568e-18
     vertex  1.000000e+00  2.500000e-01  8.326673e-17
   endloop
 endfacet
endsolid
